<?xml version="1.0" standalone="no"?>
<!DOCTYPE svg PUBLIC "-//W3C//DTD SVG 20010904//EN"
 "http://www.w3.org/TR/2001/REC-SVG-20010904/DTD/svg10.dtd">
<svg version="1.0" xmlns="http://www.w3.org/2000/svg"
 width="400.000000pt" height="400.000000pt" viewBox="0 0 400.000000 400.000000"
 preserveAspectRatio="xMidYMid meet">
<metadata>
Created by potrace 1.11, written by Peter Selinger 2001-2013
</metadata>
<g transform="translate(0.000000,400.000000) scale(0.100000,-0.100000)"
fill="#000000" stroke="none">
<path d="M1669 3809 c-14 -14 -19 -34 -20 -71 -2 -182 -39 -283 -131 -364
-213 -188 -291 -318 -287 -484 4 -153 79 -279 207 -344 47 -24 127 -32 138
-15 5 8 11 64 14 126 6 135 9 140 136 235 49 37 112 92 141 122 50 54 120 165
127 203 2 10 9 38 16 61 39 145 -16 330 -132 444 -89 88 -173 123 -209 87z"/>
<path d="M2227 3168 c-10 -8 -26 -48 -37 -96 -31 -130 -51 -156 -168 -227 -75
-46 -131 -104 -168 -177 -24 -45 -28 -65 -28 -138 -1 -68 3 -93 21 -125 40
-76 115 -135 170 -135 39 0 48 15 56 92 3 31 10 65 16 76 6 11 50 41 97 67
102 56 155 101 200 170 91 142 78 313 -32 434 -34 39 -81 71 -102 71 -4 0 -16
-6 -25 -12z"/>
<path d="M473 2113 c-41 -21 -81 -62 -92 -94 -9 -26 -8 -114 3 -204 3 -22 8
-65 11 -95 4 -30 8 -66 10 -80 2 -14 7 -45 10 -70 3 -25 18 -99 31 -165 14
-66 27 -129 29 -140 3 -11 20 -78 40 -149 58 -214 159 -394 303 -543 l50 -53
-121 0 c-134 0 -180 -13 -226 -63 -74 -81 -45 -228 55 -277 39 -20 63 -20
1105 -20 816 1 1069 4 1085 13 71 41 104 94 104 166 0 74 -33 127 -100 161
-27 13 -64 18 -155 19 -66 2 -122 4 -124 6 -2 2 18 25 44 52 64 64 131 154
180 240 l40 70 177 1 c195 1 257 11 367 63 147 68 272 211 323 369 26 82 33
242 14 320 -55 229 -220 402 -443 465 -12 3 -32 9 -45 12 -13 4 -613 8 -1335
9 -1134 2 -1315 0 -1340 -13z m2639 -379 c167 -56 214 -283 84 -406 -52 -49
-105 -65 -223 -67 l-101 -2 14 58 c7 32 16 74 19 93 5 35 22 127 29 166 2 12
7 43 11 70 3 27 8 58 10 69 2 11 4 23 4 28 2 13 106 7 153 -9z"/>
</g>
</svg>
