<?xml version="1.0" encoding="UTF-8"?>
<svg xmlns="http://www.w3.org/2000/svg" xmlns:xlink="http://www.w3.org/1999/xlink" width="24pt" height="24pt" viewBox="0 0 24 24" version="1.1">
<defs>
<clipPath id="clip1">
  <path d="M 3 1.003906 L 22 1.003906 L 22 23 L 3 23 Z M 3 1.003906 "/>
</clipPath>
</defs>
<g id="surface1">
<g clip-path="url(#clip1)" clip-rule="nonzero">
<path style=" stroke:none;fill-rule:nonzero;fill:rgb(31.764706%,31.764706%,31.764706%);fill-opacity:1;" d="M 10.148438 2.003906 C 10.089844 2.054688 10.050781 2.261719 10 2.742188 C 9.90625 3.773438 9.78125 4.023438 9.003906 4.699219 C 8.089844 5.492188 7.722656 6.183594 7.730469 7.109375 C 7.738281 8.085938 8.296875 8.875 9.152344 9.121094 C 9.625 9.257812 9.773438 9.109375 9.730469 8.566406 C 9.675781 7.832031 9.796875 7.617188 10.6875 6.960938 C 11.535156 6.316406 11.953125 5.660156 12.078125 4.769531 C 12.234375 3.691406 11.65625 2.53125 10.742188 2.074219 C 10.433594 1.921875 10.273438 1.90625 10.148438 2.003906 Z M 13.195312 5.554688 C 13.15625 5.582031 13.0625 5.832031 12.992188 6.113281 C 12.914062 6.390625 12.832031 6.660156 12.804688 6.710938 C 12.71875 6.871094 12.453125 7.097656 12.003906 7.394531 C 11.289062 7.867188 10.984375 8.382812 10.984375 9.113281 C 10.992188 9.71875 11.269531 10.210938 11.765625 10.46875 C 12.167969 10.671875 12.328125 10.566406 12.382812 10.050781 C 12.402344 9.867188 12.453125 9.671875 12.496094 9.605469 C 12.542969 9.539062 12.792969 9.367188 13.058594 9.21875 C 13.636719 8.90625 14.042969 8.519531 14.261719 8.070312 C 14.40625 7.773438 14.421875 7.683594 14.421875 7.191406 C 14.421875 6.695312 14.40625 6.613281 14.273438 6.355469 C 13.945312 5.734375 13.476562 5.386719 13.195312 5.554688 Z M 3.53125 11.363281 C 3.191406 11.519531 3.007812 11.832031 3.007812 12.265625 C 3.007812 13.019531 3.324219 15.042969 3.636719 16.320312 C 4.03125 17.933594 4.484375 18.832031 5.339844 19.742188 L 5.722656 20.144531 L 5.023438 20.144531 C 4.433594 20.144531 4.292969 20.160156 4.109375 20.253906 C 3.554688 20.539062 3.40625 21.308594 3.8125 21.792969 C 4.109375 22.144531 3.695312 22.125 10.1875 22.125 C 16.675781 22.125 16.265625 22.144531 16.5625 21.792969 C 16.964844 21.308594 16.816406 20.535156 16.265625 20.253906 C 16.082031 20.160156 15.941406 20.144531 15.351562 20.144531 L 14.660156 20.144531 L 15.027344 19.753906 C 15.375 19.382812 15.898438 18.648438 16.046875 18.316406 L 16.109375 18.179688 L 17.167969 18.144531 C 17.886719 18.128906 18.316406 18.089844 18.542969 18.03125 C 19.707031 17.707031 20.671875 16.726562 20.96875 15.550781 C 21.078125 15.125 21.070312 14.285156 20.960938 13.851562 C 20.652344 12.640625 19.707031 11.710938 18.476562 11.390625 C 18.082031 11.292969 17.804688 11.289062 10.878906 11.289062 C 5.015625 11.292969 3.664062 11.304688 3.53125 11.363281 Z M 17.910156 13.4375 C 18.464844 13.554688 18.882812 14.03125 18.945312 14.605469 C 19 15.15625 18.730469 15.632812 18.222656 15.878906 C 17.976562 16 17.816406 16.035156 17.371094 16.054688 C 17.0625 16.074219 16.816406 16.074219 16.816406 16.054688 C 16.816406 16.035156 16.886719 15.65625 16.972656 15.210938 C 17.0625 14.757812 17.167969 14.164062 17.207031 13.882812 L 17.273438 13.378906 L 17.453125 13.378906 C 17.550781 13.378906 17.761719 13.40625 17.910156 13.4375 Z M 17.910156 13.4375 "/>
</g>
</g>
</svg>
