<svg id="svg" version="1.1" xmlns="http://www.w3.org/2000/svg" xmlns:xlink="http://www.w3.org/1999/xlink" width="400" height="476.1904761904762" viewBox="0, 0, 400,476.1904761904762"><g id="svgg"><path id="path0" d="M182.857 301.636 C 183.585 302.085,182.150 302.356,178.622 302.433 C 176.740 302.475,175.200 302.664,175.200 302.854 C 175.200 303.044,174.311 303.200,173.224 303.200 C 172.137 303.200,171.134 303.383,170.996 303.607 C 170.858 303.830,170.577 303.909,170.372 303.783 C 170.168 303.656,170.000 303.705,170.000 303.891 C 170.000 304.076,169.010 304.202,167.800 304.170 C 166.183 304.127,165.600 304.256,165.600 304.656 C 165.600 305.024,165.083 305.200,164.000 305.200 C 163.120 305.200,162.400 305.391,162.400 305.624 C 162.400 305.857,162.232 305.944,162.028 305.817 C 161.823 305.691,161.540 305.773,161.400 306.000 C 161.260 306.227,160.966 306.302,160.747 306.167 C 160.528 306.032,159.970 306.254,159.506 306.661 C 159.042 307.067,158.797 307.171,158.961 306.890 C 159.125 306.610,158.604 306.748,157.804 307.198 C 157.003 307.647,156.214 307.932,156.049 307.830 C 155.885 307.729,155.221 307.994,154.575 308.420 C 153.929 308.846,153.173 309.196,152.896 309.197 C 151.879 309.203,149.999 311.452,150.017 312.643 C 150.033 313.714,152.051 315.600,153.182 315.600 C 153.362 315.600,154.011 315.861,154.626 316.180 C 155.240 316.498,155.895 316.665,156.081 316.550 C 156.267 316.435,156.370 316.579,156.310 316.870 C 156.249 317.162,156.460 317.343,156.777 317.274 C 157.095 317.205,157.995 317.406,158.777 317.722 C 161.318 318.746,163.031 319.200,164.352 319.200 C 165.114 319.200,165.545 319.365,165.400 319.600 C 165.264 319.820,165.388 320.007,165.676 320.015 C 167.224 320.060,169.417 320.530,169.533 320.842 C 169.607 321.039,170.897 321.200,172.400 321.200 C 174.011 321.200,175.193 321.378,175.278 321.634 C 175.361 321.884,176.850 322.133,178.776 322.219 C 180.621 322.302,182.317 322.557,182.545 322.785 C 182.805 323.045,186.066 323.200,191.280 323.200 L 199.600 323.200 199.600 346.334 L 199.600 369.468 200.797 370.534 C 201.455 371.120,202.097 371.600,202.225 371.600 C 202.353 371.600,202.737 371.880,203.079 372.222 C 203.850 372.993,208.388 372.896,208.692 372.103 C 208.799 371.827,209.136 371.600,209.443 371.600 C 209.749 371.600,210.000 371.445,210.000 371.255 C 210.000 371.065,210.463 370.446,211.029 369.880 C 211.596 369.314,212.025 368.524,211.983 368.125 C 211.942 367.726,211.929 357.470,211.954 345.333 L 212.000 323.266 214.700 323.113 C 216.185 323.029,217.723 322.811,218.118 322.630 C 218.804 322.315,218.831 323.086,218.718 339.746 C 218.625 353.421,218.708 357.233,219.100 357.383 C 219.375 357.489,219.600 357.829,219.600 358.138 C 219.600 358.448,219.868 358.924,220.196 359.196 C 220.523 359.468,220.675 359.878,220.534 360.107 C 220.392 360.336,220.464 360.408,220.693 360.266 C 220.922 360.125,221.332 360.277,221.604 360.604 C 221.876 360.932,222.526 361.200,223.049 361.200 C 223.572 361.200,224.000 361.425,224.000 361.700 C 224.000 362.002,224.540 362.200,225.367 362.200 C 226.118 362.200,226.703 362.020,226.667 361.800 C 226.630 361.580,227.185 361.344,227.900 361.275 C 228.615 361.206,229.200 361.007,229.200 360.834 C 229.200 360.661,229.755 359.938,230.434 359.228 L 231.668 357.936 231.618 339.168 L 231.569 320.400 232.584 320.350 C 234.246 320.268,234.416 320.220,234.715 319.752 C 234.872 319.505,235.630 319.199,236.400 319.071 C 239.570 318.544,240.626 318.279,241.116 317.887 C 241.401 317.660,242.055 317.452,242.570 317.425 C 243.086 317.397,243.753 317.181,244.054 316.944 C 244.354 316.707,245.365 316.184,246.300 315.780 C 247.235 315.376,248.000 314.920,248.000 314.766 C 248.000 314.613,248.450 314.374,249.000 314.236 C 250.803 313.783,249.971 310.000,248.069 310.000 C 247.811 310.000,247.645 309.775,247.700 309.500 C 247.762 309.191,247.455 309.048,246.900 309.125 C 246.349 309.202,246.000 309.041,246.000 308.710 C 246.000 308.389,245.479 308.130,244.716 308.072 C 244.009 308.018,243.334 307.819,243.216 307.628 C 243.097 307.438,242.550 307.219,242.000 307.141 C 241.450 307.064,240.910 306.901,240.800 306.779 C 240.338 306.270,236.875 305.200,235.687 305.200 C 234.924 305.200,234.400 304.996,234.400 304.700 C 234.400 304.380,233.663 304.159,232.349 304.087 C 231.221 304.025,229.973 303.800,229.576 303.587 C 229.178 303.374,227.941 303.200,226.826 303.200 C 225.712 303.200,224.800 303.027,224.800 302.815 C 224.800 302.603,223.135 302.378,221.100 302.315 C 218.865 302.246,217.427 302.038,217.469 301.792 C 217.516 301.519,211.707 301.383,199.993 301.383 C 190.343 301.383,182.632 301.496,182.857 301.636 " stroke="none" fill="#946434" fill-rule="evenodd"></path><path id="path1" d="M180.100 0.299 C 175.047 0.400,174.000 0.522,174.000 1.010 C 174.000 1.494,173.210 1.600,169.600 1.600 C 166.933 1.600,165.200 1.758,165.200 2.000 C 165.200 2.233,163.867 2.400,162.000 2.400 C 160.133 2.400,158.800 2.567,158.800 2.800 C 158.800 3.029,157.596 3.200,155.987 3.200 C 153.856 3.200,153.119 3.345,152.945 3.800 C 152.780 4.230,152.108 4.400,150.581 4.400 C 149.407 4.400,148.336 4.580,148.200 4.800 C 148.064 5.020,146.968 5.200,145.764 5.200 C 144.146 5.200,143.512 5.363,143.335 5.826 C 143.148 6.313,142.749 6.394,141.548 6.191 C 140.340 5.987,139.949 6.069,139.758 6.565 C 139.580 7.028,138.972 7.200,137.514 7.200 C 136.079 7.200,135.569 7.341,135.706 7.700 C 135.847 8.065,135.427 8.162,134.152 8.060 C 132.831 7.954,132.346 8.076,132.160 8.560 C 131.981 9.026,131.382 9.200,129.957 9.200 C 128.881 9.200,128.000 9.380,128.000 9.600 C 128.000 9.820,127.385 10.000,126.633 10.000 C 125.882 10.000,125.198 10.206,125.114 10.457 C 125.030 10.709,124.464 10.941,123.856 10.974 C 123.248 11.006,122.599 11.278,122.413 11.578 C 122.228 11.878,121.519 12.108,120.838 12.089 C 120.157 12.069,119.600 12.221,119.600 12.427 C 119.600 12.632,118.970 12.800,118.200 12.800 C 117.222 12.800,116.800 12.981,116.800 13.400 C 116.800 13.773,116.422 14.000,115.800 14.000 C 115.250 14.000,114.800 14.180,114.800 14.400 C 114.800 14.620,114.151 14.800,113.357 14.800 C 112.291 14.800,111.970 14.945,112.127 15.355 C 112.277 15.744,112.110 15.849,111.570 15.708 C 111.147 15.597,110.800 15.348,110.800 15.153 C 110.800 14.959,110.440 14.800,110.000 14.800 C 109.560 14.800,109.200 14.620,109.200 14.400 C 109.200 14.180,108.750 14.000,108.200 14.000 C 107.578 14.000,107.200 13.773,107.200 13.400 C 107.200 13.027,106.822 12.800,106.200 12.800 C 105.650 12.800,105.200 12.620,105.200 12.400 C 105.200 12.180,104.589 12.000,103.843 12.000 C 103.056 12.000,102.396 11.767,102.273 11.446 C 102.143 11.108,101.591 10.933,100.854 10.995 C 100.121 11.058,99.564 10.882,99.436 10.549 C 99.292 10.175,98.519 10.000,97.013 10.000 C 95.796 10.000,94.800 9.820,94.800 9.600 C 94.800 9.057,78.936 9.057,78.600 9.600 C 78.464 9.820,77.631 10.000,76.748 10.000 C 75.839 10.000,74.877 10.266,74.529 10.614 C 74.188 10.955,73.590 11.124,73.182 10.994 C 72.700 10.841,72.305 11.030,72.030 11.545 C 71.750 12.067,71.342 12.258,70.805 12.117 C 70.362 12.001,70.000 12.095,70.000 12.326 C 70.000 12.556,69.595 12.806,69.100 12.882 C 68.605 12.957,68.245 13.240,68.300 13.509 C 68.355 13.779,68.130 14.000,67.800 14.000 C 67.470 14.000,67.200 14.180,67.200 14.400 C 67.200 14.620,66.827 14.800,66.371 14.800 C 65.486 14.800,64.400 15.666,64.400 16.371 C 64.400 16.607,64.130 16.800,63.800 16.800 C 63.470 16.800,63.200 16.980,63.200 17.200 C 63.200 17.420,62.937 17.600,62.616 17.600 C 61.864 17.600,58.800 20.594,58.800 21.328 C 58.800 21.636,58.350 22.226,57.800 22.639 C 57.250 23.052,56.800 23.617,56.800 23.895 C 56.800 24.173,56.530 24.400,56.200 24.400 C 55.823 24.400,55.600 24.780,55.600 25.424 C 55.600 26.103,55.443 26.350,55.132 26.158 C 54.817 25.964,54.748 26.087,54.919 26.534 C 55.086 26.969,54.971 27.200,54.587 27.200 C 54.203 27.200,54.000 27.610,54.000 28.387 C 54.000 29.279,53.850 29.517,53.400 29.345 C 52.984 29.185,52.800 29.372,52.800 29.957 C 52.800 30.421,52.620 30.800,52.400 30.800 C 52.180 30.800,52.000 31.231,52.000 31.757 C 52.000 32.284,51.739 32.815,51.419 32.937 C 51.090 33.064,50.906 33.513,50.995 33.975 C 51.082 34.424,50.893 35.050,50.576 35.367 C 50.243 35.700,50.000 36.713,50.000 37.771 C 50.000 38.777,49.820 39.600,49.600 39.600 C 49.372 39.600,49.200 40.786,49.200 42.357 C 49.200 44.439,49.053 45.171,48.600 45.345 C 47.710 45.686,47.710 54.800,48.600 54.800 C 49.091 54.800,49.200 55.489,49.200 58.600 C 49.200 60.867,49.361 62.400,49.600 62.400 C 49.820 62.400,50.000 63.195,50.000 64.167 C 50.000 65.146,50.206 66.002,50.462 66.087 C 50.715 66.172,50.957 67.032,50.998 67.999 C 51.039 68.966,51.281 69.827,51.536 69.912 C 51.791 69.997,52.000 70.682,52.000 71.433 C 52.000 72.185,52.180 72.800,52.400 72.800 C 52.620 72.800,52.800 73.430,52.800 74.200 C 52.800 75.178,52.981 75.600,53.400 75.600 C 53.773 75.600,54.000 75.978,54.000 76.600 C 54.000 77.150,54.180 77.600,54.400 77.600 C 54.620 77.600,54.800 78.050,54.800 78.600 C 54.800 79.150,54.980 79.600,55.200 79.600 C 55.429 79.600,55.600 80.800,55.600 82.400 C 55.600 84.000,55.429 85.200,55.200 85.200 C 54.978 85.200,54.800 86.267,54.800 87.600 C 54.800 88.933,54.622 90.000,54.400 90.000 C 54.172 90.000,54.000 91.186,54.000 92.757 C 54.000 94.839,53.853 95.571,53.400 95.745 C 52.928 95.926,52.800 96.745,52.800 99.587 C 52.800 101.657,52.634 103.200,52.412 103.200 C 52.179 103.200,52.024 105.467,52.026 108.868 C 52.028 112.493,51.873 114.631,51.597 114.802 C 50.928 115.215,50.832 148.800,51.500 148.800 C 51.878 148.800,52.000 150.307,52.000 155.000 C 52.000 158.867,52.151 161.200,52.400 161.200 C 52.648 161.200,52.800 163.400,52.800 167.000 C 52.800 170.600,52.648 172.800,52.400 172.800 C 52.178 172.800,52.000 173.867,52.000 175.200 C 52.000 176.893,51.848 177.600,51.484 177.600 C 51.157 177.600,50.989 178.075,51.026 178.900 C 51.058 179.615,50.840 180.599,50.542 181.086 C 50.244 181.573,50.000 182.518,50.000 183.186 C 50.000 183.854,49.809 184.400,49.575 184.400 C 49.341 184.400,49.182 184.715,49.221 185.100 C 49.369 186.560,49.180 187.200,48.600 187.200 C 48.181 187.200,48.000 187.622,48.000 188.600 C 48.000 189.370,47.820 190.000,47.600 190.000 C 47.380 190.000,47.200 190.611,47.200 191.357 C 47.200 192.237,46.973 192.802,46.555 192.962 C 46.145 193.119,45.985 193.501,46.117 194.005 C 46.252 194.520,46.127 194.800,45.763 194.800 C 45.386 194.800,45.200 195.264,45.200 196.200 C 45.200 196.970,45.020 197.600,44.800 197.600 C 44.580 197.600,44.400 198.050,44.400 198.600 C 44.400 199.222,44.173 199.600,43.800 199.600 C 43.381 199.600,43.200 200.022,43.200 201.000 C 43.200 201.770,43.020 202.400,42.800 202.400 C 42.580 202.400,42.400 202.850,42.400 203.400 C 42.400 203.950,42.209 204.400,41.976 204.400 C 41.743 204.400,41.661 204.575,41.793 204.789 C 41.926 205.003,41.666 205.493,41.217 205.878 C 40.768 206.263,40.400 206.898,40.400 207.289 C 40.400 207.680,40.220 208.000,40.000 208.000 C 39.780 208.000,39.600 208.731,39.600 209.624 C 39.600 210.604,39.442 211.149,39.200 211.000 C 38.852 210.785,38.610 211.596,38.753 212.500 C 38.779 212.665,38.530 212.800,38.200 212.800 C 37.827 212.800,37.600 213.178,37.600 213.800 C 37.600 214.350,37.420 214.800,37.200 214.800 C 36.980 214.800,36.800 215.166,36.800 215.613 C 36.800 216.059,36.530 216.529,36.200 216.655 C 35.870 216.782,35.600 217.216,35.600 217.619 C 35.600 218.023,35.420 218.464,35.200 218.600 C 34.980 218.736,34.800 219.377,34.800 220.024 C 34.800 220.671,34.620 221.200,34.400 221.200 C 34.180 221.200,34.000 221.650,34.000 222.200 C 34.000 222.822,33.773 223.200,33.400 223.200 C 33.027 223.200,32.800 223.578,32.800 224.200 C 32.800 224.750,32.620 225.200,32.400 225.200 C 32.180 225.200,32.000 225.650,32.000 226.200 C 32.000 226.828,31.774 227.200,31.392 227.200 C 30.944 227.200,30.851 227.462,31.036 228.200 C 31.226 228.956,31.130 229.200,30.643 229.200 C 30.267 229.200,30.000 229.532,30.000 230.000 C 30.000 230.440,29.820 230.800,29.600 230.800 C 29.380 230.800,29.200 231.430,29.200 232.200 C 29.200 233.178,29.019 233.600,28.600 233.600 C 28.227 233.600,28.000 233.978,28.000 234.600 C 28.000 235.150,27.820 235.600,27.600 235.600 C 27.380 235.600,27.200 235.973,27.200 236.429 C 27.200 236.884,26.920 237.537,26.577 237.880 C 26.234 238.223,26.049 238.750,26.164 239.052 C 26.284 239.363,26.121 239.600,25.787 239.600 C 25.383 239.600,25.200 240.036,25.200 241.000 C 25.200 241.770,25.020 242.400,24.800 242.400 C 24.580 242.400,24.400 242.766,24.400 243.213 C 24.400 243.659,24.130 244.129,23.800 244.255 C 23.470 244.382,23.200 244.816,23.200 245.219 C 23.200 245.623,23.020 246.064,22.800 246.200 C 22.580 246.336,22.400 246.966,22.400 247.600 C 22.400 248.234,22.220 248.864,22.000 249.000 C 21.780 249.136,21.600 249.597,21.600 250.024 C 21.600 250.451,21.330 250.800,21.000 250.800 C 20.627 250.800,20.400 251.178,20.400 251.800 C 20.400 252.350,20.220 252.800,20.000 252.800 C 19.780 252.800,19.600 253.411,19.600 254.157 C 19.600 255.019,19.372 255.602,18.975 255.754 C 18.626 255.888,18.476 256.199,18.636 256.458 C 18.793 256.713,18.602 257.156,18.210 257.442 C 17.760 257.772,17.577 258.267,17.713 258.789 C 17.835 259.254,17.664 259.879,17.321 260.221 C 16.987 260.555,16.803 261.167,16.911 261.580 C 17.042 262.083,16.858 262.396,16.354 262.528 C 15.820 262.667,15.600 263.087,15.600 263.963 C 15.600 264.643,15.420 265.200,15.200 265.200 C 14.980 265.200,14.800 265.830,14.800 266.600 C 14.800 267.370,14.620 268.000,14.400 268.000 C 14.180 268.000,14.000 268.630,14.000 269.400 C 14.000 270.378,13.819 270.800,13.400 270.800 C 13.027 270.800,12.800 271.178,12.800 271.800 C 12.800 272.350,12.617 272.800,12.394 272.800 C 12.170 272.800,12.030 273.356,12.081 274.035 C 12.144 274.861,11.946 275.398,11.484 275.657 C 11.021 275.916,10.852 276.375,10.974 277.043 C 11.089 277.677,10.944 278.123,10.577 278.264 C 10.183 278.415,10.000 279.106,10.000 280.443 C 10.000 281.519,9.820 282.400,9.600 282.400 C 9.380 282.400,9.200 283.030,9.200 283.800 C 9.200 284.778,9.019 285.200,8.600 285.200 C 8.181 285.200,8.000 285.622,8.000 286.600 C 8.000 287.370,7.820 288.000,7.600 288.000 C 7.380 288.000,7.200 288.823,7.200 289.829 C 7.200 290.935,6.959 291.898,6.589 292.268 C 6.159 292.698,6.054 293.281,6.234 294.239 C 6.438 295.330,6.361 295.600,5.845 295.600 C 5.338 295.600,5.200 296.027,5.200 297.600 C 5.200 298.700,5.020 299.600,4.800 299.600 C 4.580 299.600,4.400 300.391,4.400 301.357 C 4.400 302.550,4.207 303.188,3.800 303.345 C 3.367 303.511,3.200 304.190,3.200 305.787 C 3.200 307.004,3.020 308.000,2.800 308.000 C 2.571 308.000,2.400 309.200,2.400 310.800 C 2.400 312.533,2.236 313.600,1.969 313.600 C 1.726 313.600,1.569 314.253,1.608 315.100 C 1.774 318.677,1.596 320.400,1.063 320.400 C 0.411 320.400,-0.001 329.774,0.001 344.564 C 0.003 358.631,0.393 366.800,1.063 366.800 C 1.577 366.800,1.826 368.966,1.609 371.554 C 1.565 372.079,1.761 372.652,2.046 372.828 C 2.399 373.046,2.538 373.984,2.483 375.774 C 2.436 377.306,2.569 378.400,2.801 378.400 C 3.021 378.400,3.200 379.216,3.200 380.213 C 3.200 381.455,3.389 382.098,3.800 382.255 C 4.205 382.411,4.400 383.046,4.400 384.209 C 4.400 385.200,4.605 386.002,4.882 386.094 C 5.179 386.193,5.327 386.900,5.266 387.934 C 5.195 389.140,5.340 389.679,5.781 389.848 C 6.187 390.004,6.318 390.387,6.168 390.984 C 6.031 391.530,6.190 392.133,6.571 392.514 C 6.917 392.860,7.200 393.696,7.200 394.371 C 7.200 395.047,7.380 395.600,7.600 395.600 C 7.820 395.600,8.000 396.230,8.000 397.000 C 8.000 397.978,8.181 398.400,8.600 398.400 C 9.019 398.400,9.200 398.822,9.200 399.800 C 9.200 400.570,9.380 401.200,9.600 401.200 C 9.820 401.200,10.000 401.830,10.000 402.600 C 10.000 403.586,10.180 404.000,10.608 404.000 C 11.038 404.000,11.163 404.293,11.034 405.000 C 10.910 405.686,11.033 406.000,11.426 406.000 C 11.815 406.000,12.000 406.451,12.000 407.400 C 12.000 408.170,12.180 408.800,12.400 408.800 C 12.620 408.800,12.800 409.250,12.800 409.800 C 12.800 410.422,13.027 410.800,13.400 410.800 C 13.773 410.800,14.000 411.178,14.000 411.800 C 14.000 412.350,14.180 412.800,14.400 412.800 C 14.620 412.800,14.800 413.430,14.800 414.200 C 14.800 414.970,14.980 415.600,15.200 415.600 C 15.420 415.600,15.600 415.941,15.600 416.357 C 15.600 416.774,15.870 417.218,16.200 417.345 C 16.530 417.471,16.800 417.941,16.800 418.387 C 16.800 418.834,16.980 419.200,17.200 419.200 C 17.420 419.200,17.600 419.631,17.600 420.157 C 17.600 420.684,17.881 421.222,18.225 421.354 C 18.569 421.486,18.748 421.761,18.622 421.965 C 18.496 422.169,18.664 422.607,18.996 422.939 C 19.328 423.271,19.606 423.781,19.613 424.071 C 19.630 424.795,20.587 426.000,21.144 426.000 C 21.395 426.000,21.600 426.450,21.600 427.000 C 21.600 427.550,21.780 428.000,22.000 428.000 C 22.220 428.000,22.400 428.349,22.400 428.776 C 22.400 429.203,22.580 429.664,22.800 429.800 C 23.020 429.936,23.200 430.376,23.200 430.777 C 23.200 431.182,23.574 431.604,24.040 431.726 C 24.503 431.847,24.762 432.138,24.617 432.373 C 24.472 432.608,24.543 432.800,24.776 432.800 C 25.009 432.800,25.200 433.160,25.200 433.600 C 25.200 434.040,25.464 434.400,25.787 434.400 C 26.121 434.400,26.284 434.637,26.164 434.948 C 26.049 435.250,26.234 435.777,26.577 436.120 C 26.920 436.463,27.200 436.936,27.200 437.171 C 27.200 437.407,27.380 437.600,27.600 437.600 C 27.820 437.600,28.000 437.939,28.000 438.353 C 28.000 438.782,28.362 439.201,28.840 439.326 C 29.303 439.447,29.562 439.738,29.417 439.973 C 29.272 440.208,29.343 440.400,29.576 440.400 C 29.809 440.400,30.006 440.715,30.013 441.100 C 30.028 441.965,30.929 443.200,31.544 443.200 C 31.795 443.200,32.000 443.573,32.000 444.029 C 32.000 444.914,32.866 446.000,33.571 446.000 C 33.807 446.000,34.000 446.373,34.000 446.829 C 34.000 447.742,35.011 448.964,35.510 448.655 C 35.684 448.548,35.821 448.941,35.813 449.530 C 35.803 450.340,36.019 450.631,36.700 450.728 C 37.195 450.798,37.600 451.023,37.600 451.228 C 37.600 451.433,37.870 451.600,38.200 451.600 C 38.530 451.600,38.800 451.788,38.800 452.018 C 38.800 452.747,40.731 454.400,41.582 454.400 C 42.032 454.400,42.400 454.593,42.400 454.829 C 42.400 455.382,43.418 456.400,43.971 456.400 C 44.207 456.400,44.400 456.539,44.400 456.709 C 44.400 456.879,45.030 457.357,45.800 457.772 C 46.570 458.187,47.200 458.678,47.200 458.863 C 47.200 459.048,47.650 459.200,48.200 459.200 C 48.822 459.200,49.200 459.427,49.200 459.800 C 49.200 460.177,49.580 460.400,50.224 460.400 C 50.804 460.400,51.140 460.573,51.000 460.800 C 50.860 461.027,51.196 461.200,51.776 461.200 C 52.339 461.200,52.800 461.380,52.800 461.600 C 52.800 461.820,53.070 462.000,53.400 462.000 C 53.730 462.000,54.000 462.270,54.000 462.600 C 54.000 462.930,54.349 463.200,54.776 463.200 C 55.203 463.200,55.664 463.380,55.800 463.600 C 55.936 463.820,56.377 464.000,56.781 464.000 C 57.184 464.000,57.618 464.270,57.745 464.600 C 57.879 464.951,58.479 465.200,59.187 465.200 C 59.854 465.200,60.400 465.380,60.400 465.600 C 60.400 465.820,60.850 466.000,61.400 466.000 C 61.950 466.000,62.400 466.180,62.400 466.400 C 62.400 466.620,62.850 466.800,63.400 466.800 C 64.022 466.800,64.400 467.027,64.400 467.400 C 64.400 467.819,64.822 468.000,65.800 468.000 C 66.570 468.000,67.200 468.180,67.200 468.400 C 67.200 468.620,67.811 468.800,68.557 468.800 C 69.395 468.800,70.003 469.030,70.145 469.400 C 70.279 469.751,70.879 470.000,71.587 470.000 C 72.254 470.000,72.800 470.180,72.800 470.400 C 72.800 470.620,73.430 470.800,74.200 470.800 C 74.970 470.800,75.600 470.980,75.600 471.200 C 75.600 471.420,76.320 471.600,77.200 471.600 C 78.356 471.600,78.800 471.767,78.800 472.200 C 78.800 472.644,79.267 472.800,80.600 472.800 C 81.590 472.800,82.400 472.980,82.400 473.200 C 82.400 473.422,83.467 473.600,84.800 473.600 C 86.133 473.600,87.200 473.778,87.200 474.000 C 87.200 474.229,88.400 474.400,90.000 474.400 C 92.122 474.400,92.800 474.534,92.800 474.955 C 92.800 476.310,128.069 476.315,129.072 474.960 C 129.404 474.512,130.174 474.328,131.662 474.339 C 132.827 474.348,133.899 474.164,134.043 473.930 C 134.188 473.696,135.047 473.515,135.953 473.527 C 136.859 473.540,137.600 473.381,137.600 473.175 C 137.600 472.969,138.230 472.800,139.000 472.800 C 139.978 472.800,140.400 472.619,140.400 472.200 C 140.400 471.781,140.822 471.600,141.800 471.600 C 142.570 471.600,143.200 471.420,143.200 471.200 C 143.200 470.980,143.815 470.800,144.567 470.800 C 145.318 470.800,145.996 470.612,146.073 470.382 C 146.149 470.152,146.614 469.934,147.106 469.897 C 147.598 469.860,148.000 469.598,148.000 469.315 C 148.000 469.032,148.450 468.800,149.000 468.800 C 149.550 468.800,150.000 468.620,150.000 468.400 C 150.000 468.180,150.546 468.000,151.213 468.000 C 151.921 468.000,152.521 467.751,152.655 467.400 C 152.782 467.070,153.277 466.800,153.754 466.800 C 154.232 466.800,154.883 466.440,155.200 466.000 C 155.517 465.560,156.166 465.200,156.642 465.200 C 157.171 465.200,157.588 464.889,157.716 464.398 C 157.855 463.870,158.140 463.679,158.553 463.837 C 159.204 464.087,160.400 463.175,160.400 462.429 C 160.400 462.193,160.810 462.000,161.312 462.000 C 161.813 462.000,162.483 461.640,162.800 461.200 C 163.117 460.760,163.607 460.400,163.888 460.400 C 164.170 460.400,164.400 460.130,164.400 459.800 C 164.400 459.467,164.756 459.200,165.200 459.200 C 165.640 459.200,166.000 459.020,166.000 458.800 C 166.000 458.580,166.193 458.400,166.429 458.400 C 166.982 458.400,168.000 457.382,168.000 456.829 C 168.000 456.593,168.193 456.400,168.429 456.400 C 168.895 456.400,170.000 455.415,170.000 455.000 C 170.000 454.666,171.066 453.600,171.400 453.600 C 171.728 453.600,172.800 452.537,172.800 452.212 C 172.800 451.977,173.214 451.426,174.300 450.215 C 174.575 449.908,174.800 449.507,174.800 449.324 C 174.800 449.140,175.250 448.652,175.800 448.239 C 176.350 447.826,176.800 447.153,176.800 446.744 C 176.800 446.335,176.980 446.000,177.200 446.000 C 177.420 446.000,177.600 445.550,177.600 445.000 C 177.600 444.450,177.780 444.000,178.000 444.000 C 178.220 444.000,178.400 443.659,178.400 443.243 C 178.400 442.826,178.670 442.382,179.000 442.255 C 179.330 442.129,179.600 441.670,179.600 441.236 C 179.600 440.802,179.780 440.336,180.000 440.200 C 180.220 440.064,180.400 439.153,180.400 438.176 C 180.400 436.822,180.550 436.400,181.034 436.400 C 181.561 436.400,181.646 435.967,181.534 433.850 C 181.433 431.932,181.524 431.348,181.900 431.493 C 182.275 431.637,182.400 430.873,182.400 428.443 C 182.400 426.548,182.234 425.200,182.000 425.200 C 181.778 425.200,181.600 424.133,181.600 422.800 C 181.600 420.933,181.467 420.400,181.000 420.400 C 180.454 420.400,180.195 419.452,180.370 418.100 C 180.406 417.825,180.247 417.600,180.018 417.600 C 179.788 417.600,179.600 417.150,179.600 416.600 C 179.600 415.978,179.373 415.600,179.000 415.600 C 178.627 415.600,178.400 415.222,178.400 414.600 C 178.400 414.050,178.220 413.600,178.000 413.600 C 177.780 413.600,177.600 413.227,177.600 412.771 C 177.600 411.886,176.734 410.800,176.029 410.800 C 175.793 410.800,175.600 410.431,175.600 409.981 C 175.600 409.147,171.983 405.200,171.219 405.200 C 170.989 405.200,170.800 405.012,170.800 404.782 C 170.800 404.239,168.961 402.400,168.418 402.400 C 168.188 402.400,168.000 402.207,168.000 401.971 C 168.000 401.188,166.783 400.311,165.986 400.520 C 165.402 400.672,165.200 400.523,165.200 399.939 C 165.200 399.507,165.020 399.264,164.800 399.400 C 164.580 399.536,164.400 399.367,164.400 399.024 C 164.400 398.625,164.039 398.400,163.400 398.400 C 162.850 398.400,162.400 398.220,162.400 398.000 C 162.400 397.780,162.130 397.600,161.800 397.600 C 161.470 397.600,161.200 397.330,161.200 397.000 C 161.200 396.667,160.844 396.400,160.400 396.400 C 159.960 396.400,159.600 396.220,159.600 396.000 C 159.600 395.780,159.150 395.600,158.600 395.600 C 158.050 395.600,157.600 395.420,157.600 395.200 C 157.600 394.980,157.066 394.800,156.413 394.800 C 155.521 394.800,155.283 394.650,155.455 394.200 C 155.615 393.784,155.428 393.600,154.843 393.600 C 154.379 393.600,154.000 393.420,154.000 393.200 C 154.000 392.980,153.569 392.800,153.043 392.800 C 152.516 392.800,151.986 392.540,151.864 392.223 C 151.721 391.850,151.277 391.712,150.612 391.832 C 149.929 391.956,149.503 391.814,149.348 391.409 C 149.220 391.074,148.684 390.800,148.157 390.800 C 147.631 390.800,147.200 390.620,147.200 390.400 C 147.200 390.180,146.216 390.000,145.013 390.000 C 143.232 390.000,142.868 389.888,143.055 389.400 C 143.234 388.935,142.961 388.800,141.843 388.800 C 141.049 388.800,140.400 388.606,140.400 388.370 C 140.400 388.125,139.841 387.996,139.100 388.070 L 137.800 388.200 137.698 348.500 C 137.630 322.105,137.731 308.800,137.998 308.800 C 138.219 308.800,138.400 308.459,138.400 308.043 C 138.400 307.626,138.670 307.182,139.000 307.055 C 139.330 306.929,139.600 306.459,139.600 306.013 C 139.600 305.566,139.780 305.200,140.000 305.200 C 140.220 305.200,140.400 304.930,140.400 304.600 C 140.400 304.270,140.588 304.000,140.818 304.000 C 141.361 304.000,143.200 302.161,143.200 301.618 C 143.200 301.388,143.584 301.200,144.053 301.200 C 144.522 301.200,145.197 300.866,145.553 300.457 C 145.909 300.049,146.605 299.587,147.100 299.430 C 147.595 299.274,148.000 298.978,148.000 298.773 C 148.000 298.568,148.270 298.400,148.600 298.400 C 148.930 298.400,149.200 298.220,149.200 298.000 C 149.200 297.780,149.560 297.600,150.000 297.600 C 150.444 297.600,150.800 297.333,150.800 297.000 C 150.800 296.583,151.220 296.400,152.176 296.400 C 152.933 296.400,153.664 296.220,153.800 296.000 C 153.936 295.780,154.397 295.600,154.824 295.600 C 155.251 295.600,155.600 295.420,155.600 295.200 C 155.600 294.980,156.230 294.800,157.000 294.800 C 157.978 294.800,158.400 294.619,158.400 294.200 C 158.400 293.747,158.889 293.600,160.400 293.600 C 161.500 293.600,162.400 293.420,162.400 293.200 C 162.400 292.980,163.210 292.800,164.200 292.800 C 165.533 292.800,166.000 292.644,166.000 292.200 C 166.000 291.733,166.533 291.600,168.400 291.600 C 169.733 291.600,170.800 291.422,170.800 291.200 C 170.800 290.969,172.067 290.800,173.800 290.800 C 175.533 290.800,176.800 290.631,176.800 290.400 C 176.800 290.159,178.467 290.000,181.000 290.000 C 184.467 290.000,185.200 289.895,185.200 289.400 C 185.200 288.877,187.111 288.800,200.000 288.800 C 212.889 288.800,214.800 288.877,214.800 289.400 C 214.800 289.895,215.533 290.000,219.000 290.000 C 221.533 290.000,223.200 290.159,223.200 290.400 C 223.200 290.631,224.467 290.800,226.200 290.800 C 227.933 290.800,229.200 290.969,229.200 291.200 C 229.200 291.422,230.267 291.600,231.600 291.600 C 233.467 291.600,234.000 291.733,234.000 292.200 C 234.000 292.644,234.467 292.800,235.800 292.800 C 236.790 292.800,237.600 292.980,237.600 293.200 C 237.600 293.420,238.500 293.600,239.600 293.600 C 241.111 293.600,241.600 293.747,241.600 294.200 C 241.600 294.619,242.022 294.800,243.000 294.800 C 243.770 294.800,244.400 294.980,244.400 295.200 C 244.400 295.420,244.850 295.600,245.400 295.600 C 245.950 295.600,246.400 295.780,246.400 296.000 C 246.400 296.220,247.030 296.400,247.800 296.400 C 248.778 296.400,249.200 296.581,249.200 297.000 C 249.200 297.333,249.556 297.600,250.000 297.600 C 250.440 297.600,250.800 297.780,250.800 298.000 C 250.800 298.220,251.070 298.400,251.400 298.400 C 251.730 298.400,252.000 298.568,252.000 298.773 C 252.000 298.978,252.405 299.274,252.900 299.430 C 253.395 299.587,254.091 300.049,254.447 300.457 C 254.803 300.866,255.478 301.200,255.947 301.200 C 256.416 301.200,256.800 301.393,256.800 301.629 C 256.800 302.193,257.822 303.200,258.395 303.200 C 258.644 303.200,258.749 303.360,258.628 303.555 C 258.508 303.750,258.785 304.007,259.245 304.128 C 259.704 304.248,259.962 304.538,259.817 304.773 C 259.672 305.008,259.731 305.200,259.949 305.200 C 260.166 305.200,260.406 305.605,260.482 306.100 C 260.557 306.595,260.840 306.955,261.109 306.900 C 261.393 306.842,261.600 307.223,261.600 307.800 C 261.600 308.350,261.780 308.800,262.000 308.800 C 262.256 308.800,262.400 312.267,262.400 318.400 L 262.400 328.000 267.200 328.000 C 270.133 328.000,272.000 328.156,272.000 328.400 C 272.000 328.628,273.186 328.800,274.757 328.800 C 276.839 328.800,277.571 328.947,277.745 329.400 C 277.878 329.747,278.476 330.000,279.164 330.000 C 279.818 330.000,280.464 330.180,280.600 330.400 C 280.736 330.620,281.377 330.800,282.024 330.800 C 282.671 330.800,283.200 330.980,283.200 331.200 C 283.200 331.420,283.650 331.600,284.200 331.600 C 284.822 331.600,285.200 331.827,285.200 332.200 C 285.200 332.546,285.561 332.800,286.053 332.800 C 286.522 332.800,287.197 333.134,287.553 333.543 C 287.909 333.951,288.605 334.413,289.100 334.570 C 289.595 334.726,290.000 335.022,290.000 335.227 C 290.000 335.432,290.281 335.600,290.624 335.600 C 290.967 335.600,291.136 335.780,291.000 336.000 C 290.864 336.220,291.033 336.400,291.376 336.400 C 291.719 336.400,292.000 336.593,292.000 336.829 C 292.000 337.295,292.985 338.400,293.400 338.400 C 293.734 338.400,294.800 339.466,294.800 339.800 C 294.800 340.215,295.905 341.200,296.371 341.200 C 296.607 341.200,296.800 341.470,296.800 341.800 C 296.800 342.130,296.980 342.400,297.200 342.400 C 297.420 342.400,297.600 342.679,297.600 343.019 C 297.600 343.360,298.050 344.055,298.600 344.565 C 299.150 345.075,299.600 345.876,299.600 346.346 C 299.600 346.816,299.780 347.200,300.000 347.200 C 300.220 347.200,300.400 347.560,300.400 348.000 C 300.400 348.444,300.667 348.800,301.000 348.800 C 301.419 348.800,301.600 349.222,301.600 350.200 C 301.600 350.970,301.780 351.600,302.000 351.600 C 302.220 351.600,302.400 352.500,302.400 353.600 C 302.400 354.700,302.580 355.600,302.800 355.600 C 303.054 355.600,303.200 358.676,303.200 364.029 C 303.200 373.003,303.077 373.600,301.229 373.600 C 300.759 373.600,300.400 373.860,300.400 374.200 C 300.400 374.577,300.020 374.800,299.376 374.800 C 298.796 374.800,298.460 374.973,298.600 375.200 C 298.740 375.427,298.404 375.600,297.824 375.600 C 297.261 375.600,296.800 375.780,296.800 376.000 C 296.800 376.220,296.350 376.400,295.800 376.400 C 295.178 376.400,294.800 376.627,294.800 377.000 C 294.800 377.373,294.422 377.600,293.800 377.600 C 293.250 377.600,292.800 377.780,292.800 378.000 C 292.800 378.220,292.350 378.400,291.800 378.400 C 291.250 378.400,290.845 378.604,290.900 378.854 C 290.956 379.109,290.388 379.362,289.608 379.430 C 288.842 379.497,288.152 379.743,288.075 379.976 C 287.446 381.863,287.200 379.056,287.200 369.987 C 287.200 361.101,287.112 359.541,286.600 359.345 C 286.193 359.188,286.000 358.550,286.000 357.357 C 286.000 356.391,285.820 355.600,285.600 355.600 C 285.380 355.600,285.200 355.150,285.200 354.600 C 285.200 354.050,285.033 353.600,284.828 353.600 C 284.623 353.600,284.394 353.195,284.318 352.700 C 284.243 352.205,283.960 351.845,283.691 351.900 C 283.421 351.955,283.200 351.711,283.200 351.357 C 283.200 350.941,282.982 350.798,282.579 350.953 C 282.219 351.091,282.062 351.023,282.206 350.790 C 282.563 350.213,279.383 347.200,278.416 347.200 C 277.957 347.200,277.600 346.937,277.600 346.600 C 277.600 346.156,277.133 346.000,275.800 346.000 C 274.810 346.000,274.000 345.820,274.000 345.600 C 274.000 345.352,271.800 345.200,268.200 345.200 L 262.400 345.200 262.400 366.600 L 262.400 388.000 261.000 388.000 C 260.230 388.000,259.600 388.180,259.600 388.400 C 259.600 388.620,258.970 388.800,258.200 388.800 C 257.222 388.800,256.800 388.981,256.800 389.400 C 256.800 389.998,256.057 390.154,253.900 390.012 C 253.295 389.972,252.800 390.133,252.800 390.370 C 252.800 390.606,252.339 390.800,251.776 390.800 C 251.213 390.800,250.852 390.961,250.974 391.158 C 251.261 391.623,250.255 392.003,249.250 391.810 C 248.817 391.726,248.365 391.915,248.244 392.229 C 248.124 392.543,247.670 392.800,247.236 392.800 C 246.802 392.800,246.336 392.980,246.200 393.200 C 246.064 393.420,245.603 393.600,245.176 393.600 C 244.749 393.600,244.400 393.870,244.400 394.200 C 244.400 394.573,244.022 394.800,243.400 394.800 C 242.850 394.800,242.400 394.980,242.400 395.200 C 242.400 395.420,241.950 395.600,241.400 395.600 C 240.850 395.600,240.400 395.780,240.400 396.000 C 240.400 396.220,240.040 396.400,239.600 396.400 C 239.156 396.400,238.800 396.667,238.800 397.000 C 238.800 397.330,238.530 397.600,238.200 397.600 C 237.870 397.600,237.600 397.780,237.600 398.000 C 237.600 398.220,237.234 398.400,236.787 398.400 C 236.341 398.400,235.872 398.669,235.746 398.998 C 235.619 399.326,235.355 399.496,235.158 399.374 C 234.961 399.252,234.800 399.356,234.800 399.605 C 234.800 400.332,233.727 401.200,232.829 401.200 C 232.359 401.200,232.000 401.460,232.000 401.800 C 232.000 402.130,231.719 402.400,231.376 402.400 C 231.033 402.400,230.864 402.580,231.000 402.800 C 231.136 403.020,231.044 403.200,230.795 403.200 C 230.222 403.200,229.200 404.207,229.200 404.771 C 229.200 405.007,229.018 405.200,228.795 405.200 C 228.055 405.200,224.400 409.197,224.400 410.005 C 224.400 410.442,224.195 410.800,223.944 410.800 C 223.329 410.800,222.428 412.035,222.413 412.900 C 222.406 413.285,222.220 413.600,222.000 413.600 C 221.780 413.600,221.600 414.134,221.600 414.787 C 221.600 415.679,221.450 415.917,221.000 415.745 C 220.561 415.576,220.400 415.795,220.400 416.557 C 220.400 417.131,220.220 417.600,220.000 417.600 C 219.780 417.600,219.600 418.230,219.600 419.000 C 219.600 419.978,219.419 420.400,219.000 420.400 C 218.670 420.400,218.400 420.591,218.400 420.824 C 218.400 421.057,218.608 421.119,218.862 420.962 C 219.166 420.774,219.214 420.853,219.004 421.193 C 218.828 421.478,218.622 422.450,218.545 423.354 C 218.468 424.258,218.224 425.059,218.003 425.132 C 217.416 425.328,217.481 431.494,218.072 431.691 C 218.368 431.789,218.560 432.873,218.586 434.595 C 218.613 436.363,218.801 437.400,219.114 437.505 C 219.381 437.594,219.600 438.282,219.600 439.033 C 219.600 439.785,219.780 440.400,220.000 440.400 C 220.220 440.400,220.400 440.946,220.400 441.613 C 220.400 442.321,220.649 442.921,221.000 443.055 C 221.330 443.182,221.600 443.592,221.600 443.967 C 221.600 444.342,221.960 445.036,222.400 445.508 C 222.840 445.980,223.200 446.619,223.200 446.927 C 223.200 447.236,223.650 447.826,224.200 448.239 C 224.750 448.652,225.200 449.282,225.200 449.639 C 225.200 449.996,225.650 450.626,226.200 451.039 C 226.750 451.452,227.200 451.940,227.200 452.124 C 227.200 452.516,228.228 453.600,228.600 453.600 C 229.015 453.600,230.000 454.705,230.000 455.171 C 230.000 455.407,230.281 455.600,230.624 455.600 C 230.967 455.600,231.136 455.780,231.000 456.000 C 230.864 456.220,231.033 456.400,231.376 456.400 C 231.719 456.400,232.000 456.670,232.000 457.000 C 232.000 457.330,232.146 457.600,232.325 457.600 C 232.503 457.600,233.052 457.976,233.545 458.435 C 234.038 458.894,234.702 459.170,235.021 459.047 C 235.406 458.900,235.600 459.089,235.600 459.613 C 235.600 460.046,235.870 460.400,236.200 460.400 C 236.530 460.400,236.800 460.580,236.800 460.800 C 236.800 461.020,237.173 461.200,237.629 461.200 C 238.514 461.200,239.600 462.066,239.600 462.771 C 239.600 463.007,239.984 463.200,240.453 463.200 C 240.923 463.200,241.716 463.676,242.215 464.257 C 242.833 464.976,243.381 465.246,243.932 465.102 C 244.508 464.951,244.679 465.050,244.527 465.445 C 244.388 465.807,244.599 466.000,245.134 466.000 C 245.584 466.000,246.064 466.180,246.200 466.400 C 246.336 466.620,246.797 466.800,247.224 466.800 C 247.651 466.800,248.000 467.070,248.000 467.400 C 248.000 467.773,248.378 468.000,249.000 468.000 C 249.550 468.000,250.000 468.180,250.000 468.400 C 250.000 468.620,250.431 468.800,250.957 468.800 C 251.484 468.800,252.018 469.070,252.145 469.400 C 252.279 469.751,252.879 470.000,253.587 470.000 C 254.254 470.000,254.800 470.180,254.800 470.400 C 254.800 470.620,255.250 470.800,255.800 470.800 C 256.350 470.800,256.800 470.980,256.800 471.200 C 256.800 471.420,257.430 471.600,258.200 471.600 C 259.178 471.600,259.600 471.781,259.600 472.200 C 259.600 472.619,260.022 472.800,261.000 472.800 C 261.770 472.800,262.400 472.980,262.400 473.200 C 262.400 473.420,263.300 473.600,264.400 473.600 C 265.500 473.600,266.400 473.780,266.400 474.000 C 266.400 474.222,267.467 474.400,268.800 474.400 C 270.545 474.400,271.200 474.547,271.200 474.939 C 271.200 475.907,286.016 476.310,300.536 475.737 C 305.716 475.533,307.200 475.355,307.200 474.937 C 307.200 474.442,309.804 474.145,312.100 474.379 C 312.485 474.418,312.800 474.259,312.800 474.025 C 312.800 473.772,313.772 473.600,315.200 473.600 C 316.533 473.600,317.600 473.422,317.600 473.200 C 317.600 472.980,318.410 472.800,319.400 472.800 C 320.733 472.800,321.200 472.644,321.200 472.200 C 321.200 471.767,321.644 471.600,322.800 471.600 C 323.680 471.600,324.400 471.420,324.400 471.200 C 324.400 470.980,325.015 470.800,325.767 470.800 C 326.518 470.800,327.193 470.626,327.267 470.413 C 327.340 470.200,327.985 469.981,328.700 469.928 C 329.443 469.872,330.000 469.609,330.000 469.315 C 330.000 468.993,330.525 468.800,331.400 468.800 C 332.170 468.800,332.800 468.620,332.800 468.400 C 332.800 468.180,333.430 468.000,334.200 468.000 C 335.178 468.000,335.600 467.819,335.600 467.400 C 335.600 467.027,335.978 466.800,336.600 466.800 C 337.150 466.800,337.600 466.620,337.600 466.400 C 337.600 466.180,338.050 466.000,338.600 466.000 C 339.150 466.000,339.600 465.820,339.600 465.600 C 339.600 465.380,340.146 465.200,340.813 465.200 C 341.521 465.200,342.121 464.951,342.255 464.600 C 342.382 464.270,342.816 464.000,343.219 464.000 C 343.623 464.000,344.064 463.820,344.200 463.600 C 344.336 463.380,344.797 463.200,345.224 463.200 C 345.651 463.200,346.000 462.930,346.000 462.600 C 346.000 462.270,346.270 462.000,346.600 462.000 C 346.930 462.000,347.200 461.820,347.200 461.600 C 347.200 461.380,347.650 461.200,348.200 461.200 C 348.750 461.200,349.200 461.020,349.200 460.800 C 349.200 460.580,349.560 460.400,350.000 460.400 C 350.444 460.400,350.800 460.133,350.800 459.800 C 350.800 459.427,351.178 459.200,351.800 459.200 C 352.350 459.200,352.800 459.020,352.800 458.800 C 352.800 458.580,352.993 458.400,353.229 458.400 C 353.464 458.400,353.908 458.175,354.215 457.900 C 355.426 456.814,355.977 456.400,356.212 456.400 C 356.618 456.400,357.600 455.288,357.600 454.829 C 357.600 454.593,357.976 454.400,358.436 454.400 C 358.897 454.400,360.037 453.612,360.982 452.640 C 361.923 451.671,363.030 450.814,363.442 450.735 C 363.854 450.656,364.259 450.235,364.343 449.801 C 364.427 449.367,364.834 448.718,365.247 448.359 C 365.661 448.000,366.000 447.322,366.000 446.853 C 366.000 446.384,366.193 446.000,366.429 446.000 C 367.134 446.000,368.000 444.914,368.000 444.029 C 368.000 443.573,368.205 443.200,368.456 443.200 C 369.071 443.200,369.972 441.965,369.987 441.100 C 369.994 440.715,370.180 440.400,370.400 440.400 C 370.620 440.400,370.800 440.130,370.800 439.800 C 370.800 439.470,371.070 439.200,371.400 439.200 C 371.733 439.200,372.000 438.844,372.000 438.400 C 372.000 437.960,372.180 437.600,372.400 437.600 C 372.620 437.600,372.800 437.349,372.800 437.043 C 372.800 436.736,373.081 436.378,373.425 436.246 C 373.769 436.114,373.948 435.839,373.822 435.635 C 373.696 435.431,373.864 434.993,374.196 434.661 C 374.528 434.329,374.800 433.774,374.800 433.429 C 374.800 433.083,374.980 432.800,375.200 432.800 C 375.420 432.800,375.600 432.530,375.600 432.200 C 375.600 431.870,375.870 431.600,376.200 431.600 C 376.533 431.600,376.800 431.244,376.800 430.800 C 376.800 430.360,376.980 430.000,377.200 430.000 C 377.420 430.000,377.600 429.550,377.600 429.000 C 377.600 428.450,377.780 428.000,378.000 428.000 C 378.220 428.000,378.400 427.550,378.400 427.000 C 378.400 426.450,378.605 426.000,378.856 426.000 C 379.471 426.000,380.372 424.765,380.387 423.900 C 380.394 423.515,380.577 423.200,380.792 423.200 C 381.008 423.200,381.298 422.750,381.436 422.200 C 381.574 421.650,381.847 421.200,382.043 421.200 C 382.240 421.200,382.400 420.750,382.400 420.200 C 382.400 419.650,382.580 419.200,382.800 419.200 C 383.020 419.200,383.200 418.834,383.200 418.387 C 383.200 417.941,383.470 417.471,383.800 417.345 C 384.130 417.218,384.400 416.774,384.400 416.357 C 384.400 415.941,384.580 415.600,384.800 415.600 C 385.020 415.600,385.200 414.970,385.200 414.200 C 385.200 413.430,385.380 412.800,385.600 412.800 C 385.820 412.800,386.000 412.350,386.000 411.800 C 386.000 411.146,386.224 410.800,386.647 410.800 C 387.121 410.800,387.242 410.533,387.102 409.800 C 386.974 409.129,387.090 408.800,387.455 408.800 C 387.811 408.800,388.000 408.314,388.000 407.400 C 388.000 406.422,388.181 406.000,388.600 406.000 C 388.973 406.000,389.200 405.622,389.200 405.000 C 389.200 404.450,389.383 404.000,389.606 404.000 C 389.830 404.000,389.969 403.429,389.916 402.730 C 389.861 402.006,390.030 401.390,390.310 401.297 C 390.579 401.207,390.800 400.518,390.800 399.767 C 390.800 398.819,390.984 398.400,391.400 398.400 C 391.819 398.400,392.000 397.978,392.000 397.000 C 392.000 396.230,392.180 395.600,392.400 395.600 C 392.620 395.600,392.800 394.989,392.800 394.243 C 392.800 393.405,393.030 392.797,393.400 392.655 C 393.747 392.522,394.000 391.924,394.000 391.236 C 394.000 390.582,394.180 389.936,394.400 389.800 C 394.620 389.664,394.800 388.753,394.800 387.776 C 394.800 386.799,394.980 386.000,395.200 386.000 C 395.420 386.000,395.600 385.209,395.600 384.243 C 395.600 383.050,395.793 382.412,396.200 382.255 C 396.611 382.098,396.800 381.455,396.800 380.213 C 396.800 379.216,396.980 378.400,397.200 378.400 C 397.429 378.400,397.600 377.200,397.600 375.600 C 397.600 374.000,397.771 372.800,398.000 372.800 C 398.231 372.800,398.400 371.533,398.400 369.800 C 398.400 367.355,398.515 366.800,399.021 366.800 C 399.513 366.800,399.637 366.322,399.620 364.500 C 399.609 363.235,399.713 357.250,399.852 351.200 C 400.190 336.510,399.721 320.400,398.955 320.400 C 398.525 320.400,398.400 319.633,398.400 317.000 C 398.400 315.000,398.235 313.600,398.000 313.600 C 397.771 313.600,397.600 312.400,397.600 310.800 C 397.600 309.200,397.429 308.000,397.200 308.000 C 396.980 308.000,396.800 307.004,396.800 305.787 C 396.800 304.190,396.633 303.511,396.200 303.345 C 395.795 303.189,395.600 302.554,395.600 301.391 C 395.600 300.442,395.405 299.602,395.167 299.522 C 394.928 299.443,394.733 298.528,394.733 297.489 C 394.733 296.450,394.568 295.600,394.367 295.600 C 394.165 295.600,394.000 294.790,394.000 293.800 C 394.000 292.467,393.844 292.000,393.400 292.000 C 392.947 292.000,392.800 291.511,392.800 290.000 C 392.800 288.900,392.620 288.000,392.400 288.000 C 392.180 288.000,392.000 287.370,392.000 286.600 C 392.000 285.622,391.819 285.200,391.400 285.200 C 390.981 285.200,390.800 284.778,390.800 283.800 C 390.800 283.030,390.620 282.400,390.400 282.400 C 390.180 282.400,390.000 281.500,390.000 280.400 C 390.000 279.300,389.820 278.400,389.600 278.400 C 389.380 278.400,389.200 277.854,389.200 277.187 C 389.200 276.479,388.951 275.879,388.600 275.745 C 388.230 275.603,388.000 274.995,388.000 274.157 C 388.000 273.411,387.820 272.800,387.600 272.800 C 387.380 272.800,387.200 272.350,387.200 271.800 C 387.200 271.178,386.973 270.800,386.600 270.800 C 386.181 270.800,386.000 270.378,386.000 269.400 C 386.000 268.630,385.820 268.000,385.600 268.000 C 385.380 268.000,385.200 267.370,385.200 266.600 C 385.200 265.830,385.020 265.200,384.800 265.200 C 384.580 265.200,384.400 264.643,384.400 263.963 C 384.400 263.087,384.180 262.667,383.646 262.528 C 383.142 262.396,382.958 262.083,383.089 261.580 C 383.197 261.167,383.020 260.562,382.694 260.237 C 382.345 259.888,382.183 259.225,382.298 258.623 C 382.413 258.020,382.310 257.600,382.047 257.600 C 381.801 257.600,381.600 257.234,381.600 256.787 C 381.600 256.341,381.330 255.871,381.000 255.745 C 380.630 255.603,380.400 254.995,380.400 254.157 C 380.400 253.411,380.220 252.800,380.000 252.800 C 379.780 252.800,379.600 252.350,379.600 251.800 C 379.600 251.178,379.373 250.800,379.000 250.800 C 378.670 250.800,378.400 250.451,378.400 250.024 C 378.400 249.597,378.220 249.136,378.000 249.000 C 377.780 248.864,377.600 248.234,377.600 247.600 C 377.600 246.966,377.420 246.336,377.200 246.200 C 376.980 246.064,376.800 245.623,376.800 245.219 C 376.800 244.816,376.530 244.382,376.200 244.255 C 375.870 244.129,375.600 243.659,375.600 243.213 C 375.600 242.766,375.420 242.400,375.200 242.400 C 374.980 242.400,374.800 241.770,374.800 241.000 C 374.800 240.230,374.620 239.600,374.400 239.600 C 374.180 239.600,374.000 239.234,374.000 238.787 C 374.000 238.341,373.730 237.871,373.400 237.745 C 373.070 237.618,372.800 237.084,372.800 236.557 C 372.800 236.031,372.620 235.600,372.400 235.600 C 372.180 235.600,372.000 235.150,372.000 234.600 C 372.000 233.978,371.773 233.600,371.400 233.600 C 370.981 233.600,370.800 233.178,370.800 232.200 C 370.800 231.430,370.620 230.800,370.400 230.800 C 370.180 230.800,370.000 230.440,370.000 230.000 C 370.000 229.560,369.820 229.200,369.600 229.200 C 369.380 229.200,369.200 228.750,369.200 228.200 C 369.200 227.578,368.973 227.200,368.600 227.200 C 368.227 227.200,368.000 226.822,368.000 226.200 C 368.000 225.650,367.820 225.200,367.600 225.200 C 367.380 225.200,367.200 224.750,367.200 224.200 C 367.200 223.578,366.973 223.200,366.600 223.200 C 366.227 223.200,366.000 222.822,366.000 222.200 C 366.000 221.650,365.820 221.200,365.600 221.200 C 365.380 221.200,365.200 220.671,365.200 220.024 C 365.200 219.377,365.020 218.736,364.800 218.600 C 364.580 218.464,364.400 218.023,364.400 217.619 C 364.400 217.216,364.130 216.782,363.800 216.655 C 363.470 216.529,363.200 216.059,363.200 215.613 C 363.200 215.166,363.020 214.800,362.800 214.800 C 362.580 214.800,362.400 214.350,362.400 213.800 C 362.400 213.250,362.220 212.800,362.000 212.800 C 361.780 212.800,361.600 212.434,361.600 211.987 C 361.600 211.541,361.330 211.071,361.000 210.945 C 360.630 210.803,360.400 210.195,360.400 209.357 C 360.400 208.611,360.220 208.000,360.000 208.000 C 359.780 208.000,359.597 207.685,359.593 207.300 C 359.589 206.915,359.139 206.176,358.593 205.658 C 357.981 205.078,357.600 204.271,357.600 203.558 C 357.600 202.921,357.420 202.400,357.200 202.400 C 356.980 202.400,356.800 201.770,356.800 201.000 C 356.800 200.022,356.619 199.600,356.200 199.600 C 355.827 199.600,355.600 199.222,355.600 198.600 C 355.600 198.050,355.420 197.600,355.200 197.600 C 354.980 197.600,354.800 196.970,354.800 196.200 C 354.800 195.430,354.620 194.800,354.400 194.800 C 354.180 194.800,354.000 194.434,354.000 193.987 C 354.000 193.541,353.730 193.071,353.400 192.945 C 353.030 192.803,352.800 192.195,352.800 191.357 C 352.800 190.611,352.620 190.000,352.400 190.000 C 352.180 190.000,352.000 189.370,352.000 188.600 C 352.000 187.622,351.819 187.200,351.400 187.200 C 350.984 187.200,350.800 186.781,350.800 185.833 C 350.800 185.082,350.592 184.397,350.337 184.312 C 350.082 184.227,349.890 183.586,349.910 182.886 C 349.930 182.186,349.778 181.510,349.573 181.383 C 349.368 181.257,349.200 180.353,349.200 179.376 C 349.200 178.064,349.043 177.600,348.600 177.600 C 348.133 177.600,348.000 177.067,348.000 175.200 C 348.000 173.867,347.822 172.800,347.600 172.800 C 347.352 172.800,347.200 170.600,347.200 167.000 C 347.200 163.400,347.352 161.200,347.600 161.200 C 347.849 161.200,348.000 158.867,348.000 155.000 C 348.000 149.756,348.092 148.800,348.600 148.800 C 349.124 148.800,349.200 146.665,349.200 131.987 C 349.200 117.412,349.120 115.144,348.600 114.945 C 348.105 114.755,348.000 113.706,348.000 108.957 C 348.000 105.386,347.848 103.200,347.600 103.200 C 347.363 103.200,347.200 101.729,347.200 99.587 C 347.200 96.745,347.072 95.926,346.600 95.745 C 346.147 95.571,346.000 94.839,346.000 92.757 C 346.000 91.186,345.828 90.000,345.600 90.000 C 345.378 90.000,345.200 88.933,345.200 87.600 C 345.200 86.267,345.022 85.200,344.800 85.200 C 344.571 85.200,344.400 84.000,344.400 82.400 C 344.400 80.800,344.571 79.600,344.800 79.600 C 345.020 79.600,345.200 79.150,345.200 78.600 C 345.200 78.050,345.380 77.600,345.600 77.600 C 345.820 77.600,346.000 77.150,346.000 76.600 C 346.000 75.978,346.227 75.600,346.600 75.600 C 347.019 75.600,347.200 75.178,347.200 74.200 C 347.200 73.430,347.380 72.800,347.600 72.800 C 347.820 72.800,348.000 72.189,348.000 71.443 C 348.000 70.605,348.230 69.997,348.600 69.855 C 349.011 69.698,349.200 69.055,349.200 67.813 C 349.200 66.816,349.380 66.000,349.600 66.000 C 349.820 66.000,350.000 65.190,350.000 64.200 C 350.000 63.210,350.180 62.400,350.400 62.400 C 350.639 62.400,350.800 60.867,350.800 58.600 C 350.800 55.489,350.909 54.800,351.400 54.800 C 351.899 54.800,352.000 54.021,352.000 50.187 C 352.000 46.456,351.885 45.531,351.400 45.345 C 350.947 45.171,350.800 44.439,350.800 42.357 C 350.800 40.786,350.628 39.600,350.400 39.600 C 350.180 39.600,350.000 38.700,350.000 37.600 C 350.000 36.500,349.820 35.600,349.600 35.600 C 349.380 35.600,349.200 35.054,349.200 34.387 C 349.200 33.679,348.951 33.079,348.600 32.945 C 348.270 32.818,348.000 32.284,348.000 31.757 C 348.000 31.231,347.820 30.800,347.600 30.800 C 347.380 30.800,347.200 30.440,347.200 30.000 C 347.200 29.556,346.933 29.200,346.600 29.200 C 346.227 29.200,346.000 28.822,346.000 28.200 C 346.000 27.587,345.772 27.200,345.413 27.200 C 345.029 27.200,344.914 26.969,345.081 26.534 C 345.252 26.087,345.183 25.964,344.868 26.158 C 344.557 26.350,344.400 26.103,344.400 25.424 C 344.400 24.780,344.177 24.400,343.800 24.400 C 343.470 24.400,343.200 24.130,343.200 23.800 C 343.200 23.470,342.919 23.200,342.576 23.200 C 342.233 23.200,342.064 23.020,342.200 22.800 C 342.336 22.580,342.269 22.400,342.051 22.400 C 341.832 22.400,341.527 21.999,341.371 21.508 C 341.047 20.488,338.948 18.400,338.246 18.400 C 337.988 18.400,337.524 18.050,337.215 17.621 C 336.907 17.193,336.506 16.935,336.324 17.047 C 336.143 17.159,335.871 16.924,335.720 16.525 C 335.315 15.457,334.555 14.800,333.724 14.800 C 333.320 14.800,332.652 14.350,332.239 13.800 C 331.826 13.250,331.153 12.800,330.744 12.800 C 330.335 12.800,330.000 12.620,330.000 12.400 C 330.000 12.180,329.615 12.000,329.144 12.000 C 328.673 12.000,328.047 11.685,327.752 11.300 C 327.341 10.765,327.137 10.718,326.884 11.101 C 326.631 11.482,326.347 11.410,325.693 10.801 C 325.131 10.278,324.281 10.000,323.240 10.000 C 322.364 10.000,321.536 9.820,321.400 9.600 C 321.064 9.057,305.200 9.057,305.200 9.600 C 305.200 9.820,304.204 10.000,302.987 10.000 C 301.481 10.000,300.708 10.175,300.564 10.549 C 300.436 10.882,299.879 11.058,299.146 10.995 C 298.409 10.933,297.857 11.108,297.727 11.446 C 297.604 11.767,296.944 12.000,296.157 12.000 C 295.411 12.000,294.800 12.180,294.800 12.400 C 294.800 12.620,294.350 12.800,293.800 12.800 C 293.178 12.800,292.800 13.027,292.800 13.400 C 292.800 13.786,292.408 14.002,291.700 14.006 C 290.843 14.011,290.732 14.098,291.200 14.400 C 291.655 14.694,291.486 14.789,290.500 14.794 C 289.785 14.797,289.200 14.980,289.200 15.200 C 289.200 15.420,288.930 15.600,288.600 15.600 C 288.270 15.600,288.000 15.420,288.000 15.200 C 288.000 14.980,287.370 14.800,286.600 14.800 C 285.830 14.800,285.200 14.620,285.200 14.400 C 285.200 14.180,284.750 14.000,284.200 14.000 C 283.578 14.000,283.200 13.773,283.200 13.400 C 283.200 12.981,282.778 12.800,281.800 12.800 C 281.030 12.800,280.400 12.620,280.400 12.400 C 280.400 12.180,279.789 12.000,279.043 12.000 C 278.225 12.000,277.597 11.769,277.463 11.419 C 277.336 11.090,276.887 10.906,276.425 10.995 C 275.976 11.082,275.350 10.893,275.033 10.576 C 274.716 10.259,273.904 10.000,273.229 10.000 C 272.553 10.000,272.000 9.820,272.000 9.600 C 272.000 9.380,271.119 9.200,270.043 9.200 C 268.618 9.200,268.019 9.026,267.840 8.560 C 267.654 8.076,267.169 7.954,265.848 8.060 C 264.573 8.162,264.153 8.065,264.294 7.700 C 264.431 7.341,263.921 7.200,262.486 7.200 C 261.028 7.200,260.420 7.028,260.242 6.565 C 260.051 6.069,259.660 5.987,258.452 6.191 C 257.251 6.394,256.852 6.313,256.665 5.826 C 256.487 5.362,255.851 5.200,254.213 5.200 C 252.996 5.200,252.000 5.020,252.000 4.800 C 252.000 4.579,250.948 4.400,249.643 4.400 C 247.916 4.400,247.224 4.239,247.055 3.800 C 246.881 3.345,246.144 3.200,244.013 3.200 C 242.404 3.200,241.200 3.029,241.200 2.800 C 241.200 2.567,239.867 2.400,238.000 2.400 C 236.133 2.400,234.800 2.233,234.800 2.000 C 234.800 1.758,233.067 1.600,230.400 1.600 C 226.988 1.600,226.000 1.480,226.000 1.064 C 226.000 0.158,204.853 -0.194,180.100 0.299 M201.700 55.093 C 200.765 55.177,199.235 55.177,198.300 55.093 C 197.365 55.009,198.130 54.940,200.000 54.940 C 201.870 54.940,202.635 55.009,201.700 55.093 M208.145 56.200 C 208.302 56.611,208.945 56.800,210.187 56.800 C 211.184 56.800,212.000 56.980,212.000 57.200 C 212.000 57.420,212.630 57.600,213.400 57.600 C 214.170 57.600,214.800 57.780,214.800 58.000 C 214.800 58.220,215.430 58.400,216.200 58.400 C 217.178 58.400,217.600 58.581,217.600 59.000 C 217.600 59.373,217.978 59.600,218.600 59.600 C 219.150 59.600,219.600 59.780,219.600 60.000 C 219.600 60.220,220.050 60.400,220.600 60.400 C 221.222 60.400,221.600 60.627,221.600 61.000 C 221.600 61.333,221.956 61.600,222.400 61.600 C 222.840 61.600,223.200 61.780,223.200 62.000 C 223.200 62.220,223.470 62.400,223.800 62.400 C 224.130 62.400,224.400 62.580,224.400 62.800 C 224.400 63.020,224.735 63.200,225.144 63.200 C 225.553 63.200,226.226 63.650,226.639 64.200 C 227.052 64.750,227.720 65.200,228.124 65.200 C 228.929 65.200,230.000 66.097,230.000 66.771 C 230.000 67.007,230.281 67.200,230.624 67.200 C 230.967 67.200,231.136 67.380,231.000 67.600 C 230.864 67.820,230.991 68.000,231.281 68.000 C 231.572 68.000,232.148 68.450,232.561 69.000 C 232.974 69.550,233.570 70.000,233.885 70.000 C 234.557 70.000,235.600 70.956,235.600 71.571 C 235.600 71.807,235.870 72.000,236.200 72.000 C 236.530 72.000,236.800 72.297,236.800 72.660 C 236.800 73.022,237.430 73.931,238.200 74.679 C 238.970 75.427,239.600 76.133,239.600 76.248 C 239.600 76.625,240.733 77.600,241.171 77.600 C 241.407 77.600,241.600 77.968,241.600 78.418 C 241.600 79.269,243.253 81.200,243.982 81.200 C 244.212 81.200,244.400 81.650,244.400 82.200 C 244.400 82.750,244.580 83.200,244.800 83.200 C 245.020 83.200,245.200 83.470,245.200 83.800 C 245.200 84.130,245.481 84.400,245.824 84.400 C 246.167 84.400,246.345 84.565,246.220 84.768 C 246.095 84.970,246.264 85.407,246.596 85.739 C 246.928 86.071,247.200 86.639,247.200 87.000 C 247.200 87.742,248.124 88.800,248.771 88.800 C 249.007 88.800,249.200 89.250,249.200 89.800 C 249.200 90.350,249.380 90.800,249.600 90.800 C 249.820 90.800,250.000 91.269,250.000 91.843 C 250.000 92.605,250.161 92.824,250.600 92.655 C 251.050 92.483,251.200 92.721,251.200 93.613 C 251.200 94.266,251.380 94.800,251.600 94.800 C 251.820 94.800,252.000 95.250,252.000 95.800 C 252.000 96.350,252.180 96.800,252.400 96.800 C 252.620 96.800,252.800 97.346,252.800 98.013 C 252.800 98.721,253.049 99.321,253.400 99.455 C 253.730 99.582,254.000 100.026,254.000 100.443 C 254.000 100.859,254.180 101.200,254.400 101.200 C 254.620 101.200,254.800 101.650,254.800 102.200 C 254.800 102.750,254.980 103.200,255.200 103.200 C 255.420 103.200,255.600 103.830,255.600 104.600 C 255.600 105.578,255.781 106.000,256.200 106.000 C 256.617 106.000,256.800 106.420,256.800 107.376 C 256.800 108.133,256.980 108.864,257.200 109.000 C 257.420 109.136,257.600 109.782,257.600 110.436 C 257.600 111.093,257.854 111.722,258.167 111.843 C 258.533 111.983,258.681 112.482,258.584 113.249 C 258.485 114.030,258.634 114.515,259.017 114.662 C 259.369 114.797,259.600 115.423,259.600 116.243 C 259.600 116.989,259.780 117.600,260.000 117.600 C 260.220 117.600,260.400 118.410,260.400 119.400 C 260.400 120.733,260.556 121.200,261.000 121.200 C 261.467 121.200,261.600 121.733,261.600 123.600 C 261.600 124.933,261.778 126.000,262.000 126.000 C 262.232 126.000,262.400 127.281,262.400 129.043 C 262.400 131.313,262.527 132.037,262.900 131.893 C 263.294 131.742,263.376 134.062,263.288 142.867 C 263.217 149.945,263.034 153.944,262.788 153.792 C 262.554 153.648,262.400 154.513,262.400 155.976 C 262.400 157.421,262.228 158.400,261.975 158.400 C 261.741 158.400,261.582 158.715,261.621 159.100 C 261.820 161.061,261.568 162.400,261.000 162.400 C 260.581 162.400,260.400 162.822,260.400 163.800 C 260.400 164.570,260.209 165.200,259.975 165.200 C 259.741 165.200,259.582 165.515,259.621 165.900 C 259.766 167.330,259.585 168.000,259.052 168.000 C 258.681 168.000,258.549 168.381,258.643 169.184 C 258.749 170.095,258.645 170.315,258.190 170.141 C 257.763 169.977,257.600 170.202,257.600 170.957 C 257.600 171.531,257.420 172.000,257.200 172.000 C 256.980 172.000,256.800 172.279,256.800 172.619 C 256.800 172.960,256.350 173.655,255.800 174.165 C 255.250 174.675,254.800 175.399,254.800 175.774 C 254.800 176.538,253.886 177.600,253.229 177.600 C 252.993 177.600,252.800 177.973,252.800 178.429 C 252.800 179.307,251.936 180.400,251.241 180.400 C 251.012 180.400,250.932 180.677,251.062 181.016 C 251.192 181.355,251.134 181.580,250.934 181.516 C 250.409 181.349,248.179 183.674,248.311 184.252 C 248.371 184.520,248.209 184.871,247.949 185.032 C 247.652 185.215,247.583 185.152,247.762 184.862 C 248.256 184.062,247.404 184.361,246.800 185.200 C 246.483 185.640,245.993 186.000,245.712 186.000 C 245.430 186.000,245.200 186.193,245.200 186.429 C 245.200 187.134,244.114 188.000,243.229 188.000 C 242.745 188.000,242.400 188.259,242.400 188.624 C 242.400 188.967,242.220 189.136,242.000 189.000 C 241.780 188.864,241.600 189.033,241.600 189.376 C 241.600 189.775,241.239 190.000,240.600 190.000 C 240.050 190.000,239.600 190.180,239.600 190.400 C 239.600 190.620,239.150 190.800,238.600 190.800 C 237.978 190.800,237.600 191.027,237.600 191.400 C 237.600 191.780,237.217 192.000,236.557 192.000 C 235.848 192.000,235.580 192.172,235.721 192.538 C 235.868 192.923,235.654 193.023,234.963 192.891 C 234.411 192.785,234.000 192.897,234.000 193.153 C 234.000 193.399,233.410 193.600,232.689 193.600 C 231.864 193.600,231.119 193.903,230.678 194.417 C 230.293 194.866,229.803 195.126,229.589 194.993 C 229.375 194.861,229.200 194.943,229.200 195.176 C 229.200 195.409,228.564 195.600,227.787 195.600 C 226.945 195.600,226.288 195.826,226.160 196.161 C 226.041 196.469,225.597 196.812,225.172 196.923 C 224.694 197.048,224.498 196.965,224.659 196.704 C 224.833 196.423,224.533 196.379,223.760 196.571 C 223.122 196.730,222.540 197.026,222.467 197.230 C 222.393 197.433,221.718 197.600,220.967 197.600 C 220.215 197.600,219.600 197.780,219.600 198.000 C 219.600 198.222,218.533 198.400,217.200 198.400 C 215.333 198.400,214.800 198.533,214.800 199.000 C 214.800 199.599,212.804 199.798,208.700 199.608 C 207.853 199.569,207.200 199.726,207.200 199.969 C 207.200 200.219,206.361 200.400,205.200 200.400 C 204.100 200.400,203.200 200.220,203.200 200.000 C 203.200 199.767,201.867 199.600,200.000 199.600 C 198.133 199.600,196.800 199.767,196.800 200.000 C 196.800 200.220,195.900 200.400,194.800 200.400 C 193.700 200.400,192.800 200.220,192.800 200.000 C 192.800 199.761,191.267 199.600,189.000 199.600 C 185.889 199.600,185.200 199.491,185.200 199.000 C 185.200 198.533,184.667 198.400,182.800 198.400 C 181.467 198.400,180.400 198.222,180.400 198.000 C 180.400 197.780,179.785 197.600,179.033 197.600 C 178.282 197.600,177.592 197.377,177.502 197.105 C 177.403 196.808,176.677 196.627,175.691 196.653 C 174.634 196.681,173.971 196.500,173.835 196.148 C 173.712 195.827,173.040 195.600,172.213 195.600 C 171.436 195.600,170.800 195.420,170.800 195.200 C 170.800 194.980,170.459 194.800,170.043 194.800 C 169.626 194.800,169.182 194.530,169.055 194.200 C 168.911 193.823,168.299 193.600,167.413 193.600 C 166.636 193.600,166.000 193.420,166.000 193.200 C 166.000 192.980,165.640 192.800,165.200 192.800 C 164.760 192.800,164.400 192.620,164.400 192.400 C 164.400 192.180,163.950 192.000,163.400 192.000 C 162.778 192.000,162.400 191.773,162.400 191.400 C 162.400 191.027,162.022 190.800,161.400 190.800 C 160.850 190.800,160.400 190.620,160.400 190.400 C 160.400 190.180,159.950 190.000,159.400 190.000 C 158.761 190.000,158.400 189.775,158.400 189.376 C 158.400 189.033,158.220 188.864,158.000 189.000 C 157.780 189.136,157.600 188.967,157.600 188.624 C 157.600 188.259,157.255 188.000,156.771 188.000 C 155.886 188.000,154.800 187.134,154.800 186.429 C 154.800 186.193,154.634 186.000,154.432 186.000 C 153.952 186.000,149.200 181.248,149.200 180.768 C 149.200 180.566,149.007 180.400,148.771 180.400 C 148.066 180.400,147.200 179.314,147.200 178.429 C 147.200 177.973,147.007 177.600,146.771 177.600 C 146.114 177.600,145.200 176.538,145.200 175.774 C 145.200 175.399,144.750 174.675,144.200 174.165 C 143.650 173.655,143.200 172.960,143.200 172.619 C 143.200 172.279,143.020 172.000,142.800 172.000 C 142.580 172.000,142.400 171.550,142.400 171.000 C 142.400 170.450,142.220 170.000,142.000 170.000 C 141.780 170.000,141.600 169.550,141.600 169.000 C 141.600 168.378,141.373 168.000,141.000 168.000 C 140.584 168.000,140.400 167.581,140.400 166.633 C 140.400 165.882,140.179 165.193,139.910 165.103 C 139.630 165.010,139.461 164.394,139.516 163.670 C 139.585 162.759,139.441 162.400,139.006 162.400 C 138.468 162.400,138.190 161.643,138.367 160.658 C 138.400 160.470,138.197 160.030,137.914 159.681 C 137.522 159.197,137.518 159.118,137.900 159.347 C 138.215 159.536,138.400 159.416,138.400 159.024 C 138.400 158.681,138.220 158.400,138.000 158.400 C 137.777 158.400,137.600 157.325,137.600 155.976 C 137.600 154.463,137.450 153.646,137.200 153.800 C 136.937 153.963,136.800 150.271,136.800 143.024 C 136.800 135.941,136.943 132.000,137.200 132.000 C 137.431 132.000,137.600 130.733,137.600 129.000 C 137.600 127.267,137.769 126.000,138.000 126.000 C 138.222 126.000,138.400 124.933,138.400 123.600 C 138.400 121.733,138.533 121.200,139.000 121.200 C 139.444 121.200,139.600 120.733,139.600 119.400 C 139.600 118.410,139.780 117.600,140.000 117.600 C 140.220 117.600,140.400 116.989,140.400 116.243 C 140.400 115.405,140.630 114.797,141.000 114.655 C 141.347 114.522,141.600 113.924,141.600 113.236 C 141.600 112.582,141.780 111.936,142.000 111.800 C 142.220 111.664,142.400 111.034,142.400 110.400 C 142.400 109.766,142.580 109.136,142.800 109.000 C 143.020 108.864,143.200 108.133,143.200 107.376 C 143.200 106.420,143.383 106.000,143.800 106.000 C 144.219 106.000,144.400 105.578,144.400 104.600 C 144.400 103.830,144.580 103.200,144.800 103.200 C 145.020 103.200,145.200 102.750,145.200 102.200 C 145.200 101.650,145.380 101.200,145.600 101.200 C 145.820 101.200,146.000 100.859,146.000 100.443 C 146.000 100.026,146.270 99.582,146.600 99.455 C 146.951 99.321,147.200 98.721,147.200 98.013 C 147.200 97.346,147.380 96.800,147.600 96.800 C 147.820 96.800,148.000 96.369,148.000 95.843 C 148.000 95.316,148.270 94.782,148.600 94.655 C 148.930 94.529,149.200 94.059,149.200 93.613 C 149.200 93.166,149.380 92.800,149.600 92.800 C 149.820 92.800,150.000 92.350,150.000 91.800 C 150.000 91.250,150.180 90.800,150.400 90.800 C 150.620 90.800,150.800 90.465,150.800 90.056 C 150.800 89.647,151.250 88.974,151.800 88.561 C 152.351 88.147,152.800 87.404,152.800 86.905 C 152.800 86.367,153.043 86.000,153.400 86.000 C 153.733 86.000,154.000 85.644,154.000 85.200 C 154.000 84.760,154.180 84.400,154.400 84.400 C 154.620 84.400,154.800 84.130,154.800 83.800 C 154.800 83.470,154.980 83.200,155.200 83.200 C 155.420 83.200,155.600 82.750,155.600 82.200 C 155.600 81.650,155.788 81.200,156.018 81.200 C 156.747 81.200,158.400 79.269,158.400 78.418 C 158.400 77.968,158.593 77.600,158.829 77.600 C 159.267 77.600,160.400 76.625,160.400 76.248 C 160.400 76.133,161.030 75.427,161.800 74.679 C 162.570 73.931,163.200 73.022,163.200 72.660 C 163.200 72.297,163.470 72.000,163.800 72.000 C 164.130 72.000,164.400 71.807,164.400 71.571 C 164.400 70.956,165.443 70.000,166.115 70.000 C 166.430 70.000,167.026 69.550,167.439 69.000 C 167.852 68.450,168.340 68.000,168.524 68.000 C 168.916 68.000,170.000 66.972,170.000 66.600 C 170.000 66.088,171.158 65.200,171.826 65.200 C 172.201 65.200,172.925 64.750,173.435 64.200 C 173.945 63.650,174.640 63.200,174.981 63.200 C 175.321 63.200,175.600 63.020,175.600 62.800 C 175.600 62.580,175.793 62.400,176.029 62.400 C 176.264 62.400,176.729 62.128,177.061 61.796 C 177.393 61.464,177.830 61.295,178.032 61.420 C 178.235 61.545,178.400 61.367,178.400 61.024 C 178.400 60.625,178.761 60.400,179.400 60.400 C 179.950 60.400,180.400 60.220,180.400 60.000 C 180.400 59.780,180.850 59.600,181.400 59.600 C 182.022 59.600,182.400 59.373,182.400 59.000 C 182.400 58.581,182.822 58.400,183.800 58.400 C 184.570 58.400,185.200 58.220,185.200 58.000 C 185.200 57.780,185.830 57.600,186.600 57.600 C 187.370 57.600,188.000 57.420,188.000 57.200 C 188.000 56.980,188.816 56.800,189.813 56.800 C 191.055 56.800,191.698 56.611,191.855 56.200 C 192.049 55.695,193.334 55.600,200.000 55.600 C 206.666 55.600,207.951 55.695,208.145 56.200 M193.838 65.845 C 193.673 66.275,193.303 66.416,192.730 66.266 C 192.258 66.142,191.528 66.224,191.110 66.448 C 190.585 66.729,190.187 66.721,189.825 66.421 C 189.266 65.956,188.000 66.249,188.000 66.843 C 188.000 67.039,187.370 67.200,186.600 67.200 C 185.830 67.200,185.200 67.380,185.200 67.600 C 185.200 67.820,184.570 68.000,183.800 68.000 C 182.822 68.000,182.400 68.181,182.400 68.600 C 182.400 68.958,182.032 69.200,181.488 69.200 C 180.987 69.200,180.317 69.560,180.000 70.000 C 179.683 70.440,179.128 70.800,178.768 70.800 C 178.407 70.800,177.774 71.250,177.361 71.800 C 176.948 72.350,176.383 72.800,176.105 72.800 C 175.827 72.800,175.600 73.070,175.600 73.400 C 175.600 73.730,175.420 74.000,175.200 74.000 C 174.980 74.000,174.800 74.360,174.800 74.800 C 174.800 75.240,174.620 75.600,174.400 75.600 C 174.180 75.600,174.000 75.870,174.000 76.200 C 174.000 76.530,173.730 76.800,173.400 76.800 C 173.067 76.800,172.800 77.156,172.800 77.600 C 172.800 78.040,172.620 78.400,172.400 78.400 C 172.180 78.400,172.000 78.835,172.000 79.367 C 172.000 79.898,171.775 80.408,171.501 80.500 C 170.871 80.710,170.682 89.949,171.292 90.700 C 171.577 91.051,171.546 91.200,171.190 91.200 C 170.910 91.200,171.246 91.740,171.937 92.400 C 172.628 93.060,173.554 93.600,173.996 93.600 C 174.444 93.600,174.800 93.866,174.800 94.200 C 174.800 94.676,175.378 94.800,177.600 94.800 C 179.333 94.800,180.400 94.964,180.400 95.231 C 180.400 95.468,180.985 95.629,181.700 95.590 C 184.948 95.412,186.400 95.601,186.400 96.200 C 186.400 96.616,186.819 96.800,187.767 96.800 C 188.518 96.800,189.193 96.978,189.267 97.197 C 189.340 97.415,189.882 97.633,190.471 97.681 C 191.060 97.730,191.455 97.912,191.348 98.085 C 191.240 98.258,191.428 98.400,191.764 98.400 C 192.143 98.400,192.287 98.628,192.145 99.000 C 192.018 99.330,192.114 99.600,192.357 99.600 C 192.601 99.600,192.800 99.960,192.800 100.400 C 192.800 100.844,193.067 101.200,193.400 101.200 C 193.921 101.200,194.000 102.951,194.000 114.557 C 194.000 126.061,193.917 127.946,193.400 128.145 C 192.967 128.311,192.800 128.990,192.800 130.587 C 192.800 132.694,192.751 132.800,191.776 132.800 C 191.213 132.800,190.851 132.960,190.972 133.155 C 191.259 133.620,190.204 133.868,188.100 133.830 C 186.990 133.811,186.400 133.974,186.400 134.300 C 186.400 135.133,170.166 135.010,169.846 134.175 C 169.714 133.831,169.439 133.652,169.235 133.778 C 169.031 133.904,168.593 133.736,168.261 133.404 C 167.395 132.538,161.600 132.534,161.600 133.400 C 161.600 133.730,161.330 134.000,161.000 134.000 C 160.581 134.000,160.400 134.422,160.400 135.400 C 160.400 136.170,160.220 136.800,160.000 136.800 C 159.780 136.800,159.600 137.160,159.600 137.600 C 159.600 138.040,159.780 138.400,160.000 138.400 C 160.220 138.400,160.400 139.030,160.400 139.800 C 160.400 140.778,160.581 141.200,161.000 141.200 C 161.330 141.200,161.600 141.393,161.600 141.629 C 161.600 142.389,162.715 143.200,163.759 143.200 C 164.498 143.200,164.712 143.364,164.545 143.800 C 164.376 144.239,164.595 144.400,165.357 144.400 C 165.931 144.400,166.400 144.580,166.400 144.800 C 166.400 145.020,167.210 145.200,168.200 145.200 C 169.190 145.200,170.000 145.368,170.000 145.574 C 170.000 145.792,173.564 145.962,178.600 145.984 C 184.233 146.008,187.200 145.879,187.200 145.610 C 187.200 145.376,188.227 145.200,189.600 145.200 C 190.933 145.200,192.000 145.022,192.000 144.800 C 192.000 144.580,192.546 144.400,193.213 144.400 C 193.921 144.400,194.521 144.151,194.655 143.800 C 194.797 143.430,195.405 143.200,196.243 143.200 C 196.989 143.200,197.600 143.020,197.600 142.800 C 197.600 142.580,197.951 142.400,198.380 142.400 C 198.809 142.400,199.339 142.085,199.557 141.700 C 199.931 141.041,199.986 141.044,200.517 141.762 C 200.882 142.257,201.372 142.448,201.910 142.308 C 202.507 142.152,202.680 142.247,202.527 142.645 C 202.371 143.053,202.685 143.200,203.714 143.200 C 204.590 143.200,205.201 143.425,205.345 143.800 C 205.479 144.151,206.079 144.400,206.787 144.400 C 207.454 144.400,208.000 144.580,208.000 144.800 C 208.000 145.022,209.067 145.200,210.400 145.200 C 211.726 145.200,212.800 145.378,212.800 145.598 C 212.800 145.851,215.949 145.992,221.400 145.983 C 226.626 145.974,230.000 145.818,230.000 145.584 C 230.000 145.373,230.799 145.200,231.776 145.200 C 232.753 145.200,233.664 145.020,233.800 144.800 C 233.936 144.580,234.397 144.400,234.824 144.400 C 235.251 144.400,235.600 144.130,235.600 143.800 C 235.600 143.460,235.959 143.200,236.429 143.200 C 237.314 143.200,238.400 142.334,238.400 141.629 C 238.400 141.393,238.670 141.200,239.000 141.200 C 239.419 141.200,239.600 140.778,239.600 139.800 C 239.600 139.030,239.780 138.400,240.000 138.400 C 240.220 138.400,240.400 138.040,240.400 137.600 C 240.400 137.160,240.220 136.800,240.000 136.800 C 239.780 136.800,239.600 136.170,239.600 135.400 C 239.600 134.422,239.419 134.000,239.000 134.000 C 238.670 134.000,238.400 133.730,238.400 133.400 C 238.400 132.488,232.190 132.527,231.839 133.442 C 231.701 133.802,231.336 133.984,231.007 133.858 C 230.685 133.734,230.267 133.908,230.080 134.243 C 229.645 135.020,214.433 135.101,213.956 134.329 C 213.801 134.078,212.726 133.850,211.565 133.821 C 210.313 133.789,209.390 133.571,209.295 133.284 C 209.206 133.018,208.698 132.800,208.167 132.800 C 207.263 132.800,207.200 132.659,207.200 130.620 C 207.200 129.117,207.017 128.337,206.612 128.110 C 206.059 127.801,205.881 120.679,205.988 103.100 C 205.997 101.683,206.153 101.200,206.600 101.200 C 206.933 101.200,207.200 100.844,207.200 100.400 C 207.200 99.960,207.380 99.600,207.600 99.600 C 207.820 99.600,208.000 99.330,208.000 99.000 C 208.000 98.670,208.270 98.400,208.600 98.400 C 208.930 98.400,209.200 98.220,209.200 98.000 C 209.200 97.780,209.560 97.600,210.000 97.600 C 210.440 97.600,210.800 97.420,210.800 97.200 C 210.800 96.980,211.421 96.800,212.180 96.800 C 213.016 96.800,213.698 96.553,213.910 96.175 C 214.173 95.706,214.925 95.550,216.930 95.550 C 218.398 95.550,219.600 95.381,219.600 95.175 C 219.600 94.969,220.860 94.800,222.400 94.800 C 224.622 94.800,225.200 94.676,225.200 94.200 C 225.200 93.866,225.556 93.600,226.004 93.600 C 226.446 93.600,227.346 93.086,228.004 92.457 L 229.200 91.313 229.200 86.285 C 229.200 82.349,229.070 81.127,228.600 80.657 C 228.270 80.327,228.000 79.684,228.000 79.229 C 228.000 78.773,227.820 78.400,227.600 78.400 C 227.380 78.400,227.200 78.040,227.200 77.600 C 227.200 77.156,226.933 76.800,226.600 76.800 C 226.270 76.800,226.000 76.530,226.000 76.200 C 226.000 75.870,225.820 75.600,225.600 75.600 C 225.380 75.600,225.200 75.240,225.200 74.800 C 225.200 74.360,225.020 74.000,224.800 74.000 C 224.580 74.000,224.400 73.730,224.400 73.400 C 224.400 73.070,224.196 72.800,223.947 72.800 C 223.697 72.800,223.084 72.324,222.585 71.743 C 221.951 71.005,221.424 70.753,220.838 70.906 C 220.376 71.027,220.101 70.961,220.225 70.760 C 220.559 70.220,219.384 69.200,218.429 69.200 C 217.959 69.200,217.600 68.940,217.600 68.600 C 217.600 68.181,217.178 68.000,216.200 68.000 C 215.430 68.000,214.800 67.820,214.800 67.600 C 214.800 67.380,214.247 67.200,213.571 67.200 C 212.896 67.200,212.086 66.943,211.772 66.630 C 211.366 66.223,210.504 66.102,208.780 66.207 C 206.938 66.319,206.304 66.216,206.136 65.777 C 205.787 64.869,194.188 64.933,193.838 65.845 M263.320 71.454 C 263.496 71.754,263.991 72.000,264.420 72.000 C 264.849 72.000,265.200 72.150,265.200 72.332 C 265.200 72.515,265.650 72.906,266.200 73.200 C 266.828 73.536,267.200 74.082,267.200 74.668 C 267.200 75.180,267.380 75.600,267.600 75.600 C 267.829 75.600,268.000 76.806,268.000 78.418 C 268.000 81.230,267.019 83.200,265.618 83.200 C 265.388 83.200,265.200 83.470,265.200 83.800 C 265.200 84.176,264.790 84.418,264.100 84.447 C 262.277 84.526,261.992 84.406,260.602 82.975 C 259.868 82.219,259.072 81.600,258.833 81.600 C 258.595 81.600,258.400 81.330,258.400 81.000 C 258.400 80.670,258.220 80.400,258.000 80.400 C 257.780 80.400,257.600 79.950,257.600 79.400 C 257.600 78.850,257.420 78.400,257.200 78.400 C 256.980 78.400,256.800 77.590,256.800 76.600 C 256.800 75.610,256.980 74.800,257.200 74.800 C 257.420 74.800,257.600 74.350,257.600 73.800 C 257.600 73.250,257.791 72.800,258.024 72.800 C 258.257 72.800,258.336 72.620,258.200 72.400 C 258.064 72.180,258.323 72.000,258.776 72.000 C 259.229 72.000,259.600 71.745,259.600 71.433 C 259.600 70.371,262.695 70.388,263.320 71.454 M140.400 71.400 C 140.400 71.730,140.593 72.000,140.829 72.000 C 141.534 72.000,142.400 73.086,142.400 73.971 C 142.400 74.427,142.580 74.800,142.800 74.800 C 143.020 74.800,143.200 75.610,143.200 76.600 C 143.200 77.590,143.020 78.400,142.800 78.400 C 142.580 78.400,142.400 78.850,142.400 79.400 C 142.400 79.950,142.220 80.400,142.000 80.400 C 141.780 80.400,141.600 80.670,141.600 81.000 C 141.600 81.330,141.412 81.600,141.182 81.600 C 140.640 81.600,138.569 83.673,138.700 84.085 C 138.755 84.258,137.900 84.400,136.800 84.400 C 135.289 84.400,134.800 84.253,134.800 83.800 C 134.800 83.470,134.612 83.200,134.382 83.200 C 132.981 83.200,132.000 81.230,132.000 78.418 C 132.000 76.806,132.171 75.600,132.400 75.600 C 132.620 75.600,132.800 75.150,132.800 74.600 C 132.800 74.050,133.030 73.600,133.312 73.600 C 133.593 73.600,134.083 73.240,134.400 72.800 C 134.717 72.360,135.303 72.000,135.701 72.000 C 136.099 72.000,136.529 71.730,136.655 71.400 C 136.812 70.993,137.450 70.800,138.643 70.800 C 139.938 70.800,140.400 70.958,140.400 71.400 " stroke="none" fill="#4c3c2c" fill-rule="evenodd"></path><path id="path2" d="M198.300 55.093 C 199.235 55.177,200.765 55.177,201.700 55.093 C 202.635 55.009,201.870 54.940,200.000 54.940 C 198.130 54.940,197.365 55.009,198.300 55.093 M50.976 131.800 C 50.976 137.960,51.032 140.424,51.099 137.276 C 51.167 134.127,51.167 129.087,51.099 126.076 C 51.031 123.064,50.976 125.640,50.976 131.800 " stroke="none" fill="#543c2c" fill-rule="evenodd"></path><path id="path3" d="M185.300 301.487 C 185.905 301.578,186.895 301.578,187.500 301.487 C 188.105 301.395,187.610 301.320,186.400 301.320 C 185.190 301.320,184.695 301.395,185.300 301.487 M190.705 301.483 C 191.202 301.579,191.922 301.575,192.305 301.475 C 192.687 301.375,192.280 301.296,191.400 301.301 C 190.520 301.305,190.207 301.387,190.705 301.483 M207.905 301.483 C 208.402 301.579,209.122 301.575,209.505 301.475 C 209.887 301.375,209.480 301.296,208.600 301.301 C 207.720 301.305,207.407 301.387,207.905 301.483 M212.500 301.487 C 213.105 301.578,214.095 301.578,214.700 301.487 C 215.305 301.395,214.810 301.320,213.600 301.320 C 212.390 301.320,211.895 301.395,212.500 301.487 M169.600 303.800 C 169.256 304.215,169.241 304.400,169.551 304.400 C 169.798 304.400,170.000 304.209,170.000 303.976 C 170.000 303.743,170.168 303.656,170.372 303.783 C 170.577 303.909,170.858 303.830,170.996 303.607 C 171.394 302.962,170.152 303.135,169.600 303.800 M231.784 338.000 C 231.784 347.790,231.836 351.795,231.900 346.900 C 231.963 342.005,231.963 333.995,231.900 329.100 C 231.836 324.205,231.784 328.210,231.784 338.000 M218.583 338.800 C 218.583 347.930,218.635 351.665,218.700 347.100 C 218.764 342.535,218.764 335.065,218.700 330.500 C 218.635 325.935,218.583 329.670,218.583 338.800 " stroke="none" fill="#846830" fill-rule="evenodd"></path><path id="path4" d="M50.920 118.400 C 50.920 119.610,50.995 120.105,51.087 119.500 C 51.178 118.895,51.178 117.905,51.087 117.300 C 50.995 116.695,50.920 117.190,50.920 118.400 M50.914 145.800 C 50.917 146.900,50.995 147.303,51.087 146.695 C 51.179 146.086,51.177 145.186,51.082 144.695 C 50.987 144.203,50.911 144.700,50.914 145.800 " stroke="none" fill="#5c5430" fill-rule="evenodd"></path></g></svg>